<svg width="175" height="42" viewBox="0 0 175 42" fill="none" xmlns="http://www.w3.org/2000/svg">
<rect x="0.5" y="0.5" width="174" height="41" rx="8" fill="#040320"/>
<path d="M14.1186 26.5V16.3182H20.4325V17.6406H15.6548V20.7429H19.9801V22.0604H15.6548V26.5H14.1186ZM24.8585 26.6541C24.1426 26.6541 23.5178 26.4901 22.9842 26.1619C22.4506 25.8338 22.0363 25.3748 21.7413 24.7848C21.4463 24.1948 21.2988 23.5054 21.2988 22.7166C21.2988 21.9245 21.4463 21.2318 21.7413 20.6385C22.0363 20.0452 22.4506 19.5845 22.9842 19.2564C23.5178 18.9283 24.1426 18.7642 24.8585 18.7642C25.5744 18.7642 26.1992 18.9283 26.7328 19.2564C27.2664 19.5845 27.6807 20.0452 27.9757 20.6385C28.2707 21.2318 28.4181 21.9245 28.4181 22.7166C28.4181 23.5054 28.2707 24.1948 27.9757 24.7848C27.6807 25.3748 27.2664 25.8338 26.7328 26.1619C26.1992 26.4901 25.5744 26.6541 24.8585 26.6541ZM24.8635 25.4062C25.3275 25.4062 25.7119 25.2836 26.0169 25.0384C26.3218 24.7931 26.5472 24.4666 26.693 24.0589C26.8422 23.6513 26.9167 23.2022 26.9167 22.7116C26.9167 22.2244 26.8422 21.777 26.693 21.3693C26.5472 20.9583 26.3218 20.6286 26.0169 20.38C25.7119 20.1314 25.3275 20.0071 24.8635 20.0071C24.3961 20.0071 24.0083 20.1314 23.7001 20.38C23.3952 20.6286 23.1681 20.9583 23.019 21.3693C22.8732 21.777 22.8002 22.2244 22.8002 22.7116C22.8002 23.2022 22.8732 23.6513 23.019 24.0589C23.1681 24.4666 23.3952 24.7931 23.7001 25.0384C24.0083 25.2836 24.3961 25.4062 24.8635 25.4062ZM30.0774 26.5V18.8636H31.5142V20.0767H31.5938C31.733 19.6657 31.9782 19.3426 32.3295 19.1072C32.6842 18.8686 33.0852 18.7493 33.5327 18.7493C33.6255 18.7493 33.7348 18.7526 33.8608 18.7592C33.9901 18.7659 34.0911 18.7741 34.1641 18.7841V20.206C34.1044 20.1894 33.9983 20.1712 33.8459 20.1513C33.6934 20.1281 33.541 20.1165 33.3885 20.1165C33.0372 20.1165 32.724 20.1911 32.4489 20.3402C32.1771 20.486 31.9616 20.6899 31.8026 20.9517C31.6435 21.2102 31.5639 21.5052 31.5639 21.8366V26.5H30.0774ZM39.2749 26.5V16.3182H45.6584V17.6406H40.8111V20.7429H45.3253V22.0604H40.8111V25.1776H45.718V26.5H39.2749ZM54.1238 18.8636L51.3546 26.5H49.7637L46.9895 18.8636H48.5854L50.5194 24.7401H50.5989L52.5279 18.8636H54.1238ZM58.5522 26.6541C57.7998 26.6541 57.1519 26.4934 56.6083 26.1719C56.0681 25.8471 55.6504 25.3913 55.3555 24.8047C55.0638 24.2147 54.918 23.5237 54.918 22.7315C54.918 21.9493 55.0638 21.2599 55.3555 20.6634C55.6504 20.0668 56.0614 19.6011 56.5884 19.2663C57.1187 18.9316 57.7385 18.7642 58.4478 18.7642C58.8787 18.7642 59.2963 18.8355 59.7006 18.978C60.105 19.1205 60.4679 19.3442 60.7894 19.6491C61.1109 19.9541 61.3645 20.3501 61.5501 20.8374C61.7357 21.3213 61.8285 21.9096 61.8285 22.6023V23.1293H55.7582V22.0156H60.3718C60.3718 21.6245 60.2923 21.2782 60.1332 20.9766C59.9741 20.6716 59.7504 20.4313 59.462 20.2557C59.177 20.08 58.8422 19.9922 58.4577 19.9922C58.0401 19.9922 57.6755 20.0949 57.364 20.3004C57.0558 20.5026 56.8171 20.7678 56.6481 21.0959C56.4824 21.4207 56.3995 21.7737 56.3995 22.1548V23.0249C56.3995 23.5353 56.489 23.9695 56.668 24.3274C56.8503 24.6854 57.1038 24.9588 57.4286 25.1477C57.7534 25.3333 58.1329 25.4261 58.5671 25.4261C58.8488 25.4261 59.1057 25.3864 59.3377 25.3068C59.5697 25.224 59.7702 25.1013 59.9393 24.9389C60.1083 24.7765 60.2376 24.576 60.3271 24.3374L61.734 24.5909C61.6213 25.0052 61.4192 25.3681 61.1275 25.6797C60.8391 25.9879 60.4762 26.2282 60.0387 26.4006C59.6045 26.5696 59.109 26.6541 58.5522 26.6541ZM64.9643 21.9659V26.5H63.4778V18.8636H64.9047V20.1065H64.9991C65.1748 19.7022 65.4499 19.3774 65.8244 19.1321C66.2022 18.8868 66.6779 18.7642 67.2512 18.7642C67.7716 18.7642 68.2273 18.8736 68.6184 19.0923C69.0095 19.3078 69.3128 19.6293 69.5282 20.0568C69.7437 20.4844 69.8514 21.013 69.8514 21.6428V26.5H68.3649V21.8217C68.3649 21.2682 68.2207 20.8357 67.9324 20.5241C67.644 20.2093 67.2479 20.0518 66.7441 20.0518C66.3994 20.0518 66.0929 20.1264 65.8244 20.2756C65.5592 20.4247 65.3488 20.6435 65.193 20.9318C65.0405 21.2169 64.9643 21.5616 64.9643 21.9659ZM75.4096 18.8636V20.0568H71.2385V18.8636H75.4096ZM72.3571 17.0341H73.8436V24.2578C73.8436 24.5462 73.8867 24.7633 73.9728 24.9091C74.059 25.0516 74.17 25.1494 74.3059 25.2024C74.4451 25.2521 74.5959 25.277 74.7583 25.277C74.8777 25.277 74.9821 25.2687 75.0716 25.2521C75.161 25.2356 75.2306 25.2223 75.2804 25.2124L75.5488 26.4403C75.4627 26.4735 75.34 26.5066 75.1809 26.5398C75.0218 26.5762 74.823 26.5961 74.5843 26.5994C74.1932 26.6061 73.8287 26.5365 73.4906 26.3906C73.1525 26.2448 72.8791 26.0194 72.6703 25.7145C72.4615 25.4096 72.3571 25.0268 72.3571 24.5661V17.0341ZM89.335 19.6293H87.7839C87.7243 19.2978 87.6132 19.0062 87.4508 18.7543C87.2884 18.5024 87.0895 18.2886 86.8542 18.1129C86.6189 17.9373 86.3554 17.8047 86.0637 17.7152C85.7754 17.6257 85.4688 17.581 85.144 17.581C84.5574 17.581 84.032 17.7285 83.568 18.0234C83.1073 18.3184 82.7427 18.7509 82.4743 19.321C82.2091 19.8911 82.0765 20.5871 82.0765 21.4091C82.0765 22.2377 82.2091 22.937 82.4743 23.5071C82.7427 24.0772 83.109 24.508 83.573 24.7997C84.037 25.0914 84.559 25.2372 85.139 25.2372C85.4605 25.2372 85.7654 25.1941 86.0538 25.108C86.3455 25.0185 86.609 24.8875 86.8443 24.7152C87.0796 24.5429 87.2785 24.3324 87.4409 24.0838C87.6066 23.8319 87.7209 23.5436 87.7839 23.2188L89.335 23.2237C89.2522 23.7242 89.0914 24.1849 88.8528 24.6058C88.6175 25.0234 88.3142 25.3847 87.943 25.6896C87.5751 25.9912 87.1542 26.2249 86.6802 26.3906C86.2063 26.5563 85.6892 26.6392 85.1291 26.6392C84.2475 26.6392 83.4619 26.4304 82.7725 26.0128C82.0832 25.5919 81.5396 24.9903 81.1419 24.2081C80.7475 23.4259 80.5502 22.4929 80.5502 21.4091C80.5502 20.322 80.7491 19.389 81.1468 18.6101C81.5446 17.8279 82.0881 17.228 82.7775 16.8104C83.4669 16.3894 84.2508 16.179 85.1291 16.179C85.6693 16.179 86.1731 16.2569 86.6404 16.4126C87.1111 16.5651 87.5337 16.7905 87.9082 17.0888C88.2827 17.3838 88.5926 17.745 88.8379 18.1726C89.0832 18.5968 89.2489 19.0824 89.335 19.6293ZM91.054 26.5V18.8636H92.4908V20.0767H92.5703C92.7095 19.6657 92.9548 19.3426 93.3061 19.1072C93.6607 18.8686 94.0618 18.7493 94.5092 18.7493C94.602 18.7493 94.7114 18.7526 94.8374 18.7592C94.9666 18.7659 95.0677 18.7741 95.1406 18.7841V20.206C95.081 20.1894 94.9749 20.1712 94.8224 20.1513C94.67 20.1281 94.5175 20.1165 94.3651 20.1165C94.0137 20.1165 93.7005 20.1911 93.4254 20.3402C93.1536 20.486 92.9382 20.6899 92.7791 20.9517C92.62 21.2102 92.5405 21.5052 92.5405 21.8366V26.5H91.054ZM99.4448 26.6541C98.6924 26.6541 98.0444 26.4934 97.5009 26.1719C96.9606 25.8471 96.543 25.3913 96.248 24.8047C95.9564 24.2147 95.8105 23.5237 95.8105 22.7315C95.8105 21.9493 95.9564 21.2599 96.248 20.6634C96.543 20.0668 96.954 19.6011 97.481 19.2663C98.0113 18.9316 98.6311 18.7642 99.3404 18.7642C99.7712 18.7642 100.189 18.8355 100.593 18.978C100.998 19.1205 101.36 19.3442 101.682 19.6491C102.003 19.9541 102.257 20.3501 102.443 20.8374C102.628 21.3213 102.721 21.9096 102.721 22.6023V23.1293H96.6507V22.0156H101.264C101.264 21.6245 101.185 21.2782 101.026 20.9766C100.867 20.6716 100.643 20.4313 100.355 20.2557C100.07 20.08 99.7348 19.9922 99.3503 19.9922C98.9327 19.9922 98.5681 20.0949 98.2566 20.3004C97.9483 20.5026 97.7097 20.7678 97.5407 21.0959C97.3749 21.4207 97.2921 21.7737 97.2921 22.1548V23.0249C97.2921 23.5353 97.3816 23.9695 97.5605 24.3274C97.7428 24.6854 97.9964 24.9588 98.3212 25.1477C98.646 25.3333 99.0255 25.4261 99.4597 25.4261C99.7414 25.4261 99.9983 25.3864 100.23 25.3068C100.462 25.224 100.663 25.1013 100.832 24.9389C101.001 24.7765 101.13 24.576 101.22 24.3374L102.627 24.5909C102.514 25.0052 102.312 25.3681 102.02 25.6797C101.732 25.9879 101.369 26.2282 100.931 26.4006C100.497 26.5696 100.002 26.6541 99.4448 26.6541ZM106.593 26.669C106.109 26.669 105.671 26.5795 105.28 26.4006C104.889 26.2183 104.579 25.9548 104.35 25.6101C104.125 25.2654 104.012 24.8428 104.012 24.3423C104.012 23.9115 104.095 23.5568 104.261 23.2784C104.427 23 104.65 22.7796 104.932 22.6172C105.214 22.4548 105.529 22.3321 105.877 22.2493C106.225 22.1664 106.579 22.1035 106.941 22.0604C107.398 22.0073 107.769 21.9643 108.054 21.9311C108.339 21.8946 108.547 21.8366 108.676 21.7571C108.805 21.6776 108.87 21.5483 108.87 21.3693V21.3345C108.87 20.9003 108.747 20.5639 108.502 20.3253C108.26 20.0866 107.899 19.9673 107.418 19.9673C106.917 19.9673 106.523 20.0784 106.235 20.3004C105.95 20.5192 105.752 20.7628 105.643 21.0312L104.246 20.7131C104.412 20.2491 104.654 19.8745 104.972 19.5895C105.293 19.3011 105.663 19.0923 106.081 18.9631C106.498 18.8305 106.937 18.7642 107.398 18.7642C107.703 18.7642 108.026 18.8007 108.368 18.8736C108.712 18.9432 109.034 19.0724 109.332 19.2614C109.634 19.4503 109.881 19.7204 110.073 20.0717C110.265 20.4197 110.361 20.8722 110.361 21.429V26.5H108.909V25.456H108.85C108.754 25.6482 108.609 25.8371 108.417 26.0227C108.225 26.2083 107.978 26.3625 107.676 26.4851C107.375 26.6077 107.014 26.669 106.593 26.669ZM106.916 25.4759C107.327 25.4759 107.678 25.3946 107.97 25.2322C108.265 25.0698 108.489 24.8577 108.641 24.5959C108.797 24.3307 108.875 24.0473 108.875 23.7457V22.7614C108.822 22.8144 108.719 22.8641 108.566 22.9105C108.417 22.9536 108.247 22.9917 108.054 23.0249C107.862 23.0547 107.675 23.0829 107.493 23.1094C107.31 23.1326 107.158 23.1525 107.035 23.169C106.747 23.2055 106.483 23.2668 106.245 23.353C106.009 23.4392 105.82 23.5634 105.678 23.7259C105.539 23.8849 105.469 24.0971 105.469 24.3622C105.469 24.7301 105.605 25.0085 105.877 25.1974C106.149 25.383 106.495 25.4759 106.916 25.4759ZM115.906 18.8636V20.0568H111.735V18.8636H115.906ZM112.853 17.0341H114.34V24.2578C114.34 24.5462 114.383 24.7633 114.469 24.9091C114.555 25.0516 114.666 25.1494 114.802 25.2024C114.941 25.2521 115.092 25.277 115.254 25.277C115.374 25.277 115.478 25.2687 115.568 25.2521C115.657 25.2356 115.727 25.2223 115.776 25.2124L116.045 26.4403C115.959 26.4735 115.836 26.5066 115.677 26.5398C115.518 26.5762 115.319 26.5961 115.08 26.5994C114.689 26.6061 114.325 26.5365 113.987 26.3906C113.649 26.2448 113.375 26.0194 113.166 25.7145C112.958 25.4096 112.853 25.0268 112.853 24.5661V17.0341ZM120.685 26.6541C119.969 26.6541 119.344 26.4901 118.81 26.1619C118.277 25.8338 117.862 25.3748 117.567 24.7848C117.272 24.1948 117.125 23.5054 117.125 22.7166C117.125 21.9245 117.272 21.2318 117.567 20.6385C117.862 20.0452 118.277 19.5845 118.81 19.2564C119.344 18.9283 119.969 18.7642 120.685 18.7642C121.401 18.7642 122.025 18.9283 122.559 19.2564C123.093 19.5845 123.507 20.0452 123.802 20.6385C124.097 21.2318 124.244 21.9245 124.244 22.7166C124.244 23.5054 124.097 24.1948 123.802 24.7848C123.507 25.3748 123.093 25.8338 122.559 26.1619C122.025 26.4901 121.401 26.6541 120.685 26.6541ZM120.69 25.4062C121.154 25.4062 121.538 25.2836 121.843 25.0384C122.148 24.7931 122.373 24.4666 122.519 24.0589C122.668 23.6513 122.743 23.2022 122.743 22.7116C122.743 22.2244 122.668 21.777 122.519 21.3693C122.373 20.9583 122.148 20.6286 121.843 20.38C121.538 20.1314 121.154 20.0071 120.69 20.0071C120.222 20.0071 119.835 20.1314 119.526 20.38C119.221 20.6286 118.994 20.9583 118.845 21.3693C118.699 21.777 118.626 22.2244 118.626 22.7116C118.626 23.2022 118.699 23.6513 118.845 24.0589C118.994 24.4666 119.221 24.7931 119.526 25.0384C119.835 25.2836 120.222 25.4062 120.69 25.4062ZM125.904 26.5V18.8636H127.34V20.0767H127.42C127.559 19.6657 127.804 19.3426 128.156 19.1072C128.51 18.8686 128.911 18.7493 129.359 18.7493C129.452 18.7493 129.561 18.7526 129.687 18.7592C129.816 18.7659 129.917 18.7741 129.99 18.7841V20.206C129.931 20.1894 129.825 20.1712 129.672 20.1513C129.52 20.1281 129.367 20.1165 129.215 20.1165C128.863 20.1165 128.55 20.1911 128.275 20.3402C128.003 20.486 127.788 20.6899 127.629 20.9517C127.47 21.2102 127.39 21.5052 127.39 21.8366V26.5H125.904ZM136.999 20.728L135.652 20.9666C135.595 20.7943 135.506 20.6302 135.383 20.4744C135.264 20.3187 135.101 20.1911 134.896 20.0916C134.69 19.9922 134.434 19.9425 134.125 19.9425C133.704 19.9425 133.353 20.0369 133.071 20.2259C132.79 20.4115 132.649 20.6518 132.649 20.9467C132.649 21.2019 132.743 21.4074 132.932 21.5632C133.121 21.719 133.426 21.8466 133.847 21.946L135.06 22.2244C135.763 22.3868 136.286 22.6371 136.631 22.9751C136.976 23.3132 137.148 23.7524 137.148 24.2926C137.148 24.75 137.016 25.1577 136.75 25.5156C136.489 25.8703 136.122 26.1487 135.652 26.3509C135.184 26.553 134.642 26.6541 134.026 26.6541C133.171 26.6541 132.473 26.4718 131.933 26.1072C131.393 25.7393 131.061 25.2173 130.939 24.5412L132.375 24.3224C132.465 24.697 132.649 24.9804 132.927 25.1726C133.206 25.3615 133.569 25.456 134.016 25.456C134.503 25.456 134.893 25.3549 135.184 25.1527C135.476 24.9472 135.622 24.697 135.622 24.402C135.622 24.1634 135.532 23.9628 135.353 23.8004C135.178 23.638 134.908 23.5154 134.543 23.4325L133.25 23.1491C132.538 22.9867 132.011 22.7282 131.669 22.3736C131.331 22.0189 131.162 21.5698 131.162 21.0263C131.162 20.5755 131.288 20.1811 131.54 19.843C131.792 19.505 132.14 19.2415 132.584 19.0526C133.028 18.8603 133.537 18.7642 134.11 18.7642C134.936 18.7642 135.585 18.9432 136.059 19.3011C136.533 19.6558 136.846 20.1314 136.999 20.728Z" fill="white"/>
<path d="M159.279 18.9668L154.932 23.3135C154.419 23.8268 153.579 23.8268 153.065 23.3135L148.719 18.9668" stroke="white" stroke-width="1.5" stroke-miterlimit="10" stroke-linecap="round" stroke-linejoin="round"/>
</svg>
