<svg width="80" height="44" viewBox="0 0 80 44" fill="none" xmlns="http://www.w3.org/2000/svg">
<rect x="0.5" width="79" height="44" rx="8" fill="white"/>
<path d="M17.9091 28V16.3636H19.3182V26.75H24.7273V28H17.9091ZM30.2727 28.1818C29.4848 28.1818 28.7936 27.9943 28.1989 27.6193C27.608 27.2443 27.1458 26.7197 26.8125 26.0455C26.483 25.3712 26.3182 24.5833 26.3182 23.6818C26.3182 22.7727 26.483 21.9792 26.8125 21.3011C27.1458 20.6231 27.608 20.0966 28.1989 19.7216C28.7936 19.3466 29.4848 19.1591 30.2727 19.1591C31.0606 19.1591 31.75 19.3466 32.3409 19.7216C32.9356 20.0966 33.3977 20.6231 33.7273 21.3011C34.0606 21.9792 34.2273 22.7727 34.2273 23.6818C34.2273 24.5833 34.0606 25.3712 33.7273 26.0455C33.3977 26.7197 32.9356 27.2443 32.3409 27.6193C31.75 27.9943 31.0606 28.1818 30.2727 28.1818ZM30.2727 26.9773C30.8712 26.9773 31.3636 26.8239 31.75 26.517C32.1364 26.2102 32.4223 25.8068 32.608 25.3068C32.7936 24.8068 32.8864 24.2652 32.8864 23.6818C32.8864 23.0985 32.7936 22.5549 32.608 22.0511C32.4223 21.5473 32.1364 21.1402 31.75 20.8295C31.3636 20.5189 30.8712 20.3636 30.2727 20.3636C29.6742 20.3636 29.1818 20.5189 28.7955 20.8295C28.4091 21.1402 28.1231 21.5473 27.9375 22.0511C27.7519 22.5549 27.6591 23.0985 27.6591 23.6818C27.6591 24.2652 27.7519 24.8068 27.9375 25.3068C28.1231 25.8068 28.4091 26.2102 28.7955 26.517C29.1818 26.8239 29.6742 26.9773 30.2727 26.9773ZM39.7969 31.4545C39.1491 31.4545 38.5923 31.3712 38.1264 31.2045C37.6605 31.0417 37.2723 30.8258 36.9616 30.5568C36.6548 30.2917 36.4105 30.0076 36.2287 29.7045L37.2969 28.9545C37.4181 29.1136 37.5715 29.2955 37.7571 29.5C37.9427 29.7083 38.1965 29.8883 38.5185 30.0398C38.8442 30.1951 39.2704 30.2727 39.7969 30.2727C40.5014 30.2727 41.0829 30.1023 41.5412 29.7614C41.9995 29.4205 42.2287 28.8864 42.2287 28.1591V26.3864H42.1151C42.0166 26.5455 41.8764 26.7424 41.6946 26.9773C41.5166 27.2083 41.259 27.4148 40.9219 27.5966C40.5885 27.7746 40.1378 27.8636 39.5696 27.8636C38.8651 27.8636 38.2325 27.697 37.6719 27.3636C37.1151 27.0303 36.6738 26.5455 36.348 25.9091C36.026 25.2727 35.8651 24.5 35.8651 23.5909C35.8651 22.697 36.0223 21.9186 36.3366 21.2557C36.651 20.589 37.0885 20.0739 37.6491 19.7102C38.2098 19.3428 38.8575 19.1591 39.5923 19.1591C40.1605 19.1591 40.6113 19.2538 40.9446 19.4432C41.2817 19.6288 41.5393 19.8409 41.7173 20.0795C41.8991 20.3144 42.0393 20.5076 42.1378 20.6591H42.2741V19.2727H43.5696V28.25C43.5696 29 43.3991 29.6098 43.0582 30.0795C42.7211 30.553 42.2666 30.8996 41.6946 31.1193C41.1264 31.3428 40.4938 31.4545 39.7969 31.4545ZM39.7514 26.6591C40.2893 26.6591 40.7438 26.536 41.1151 26.2898C41.4863 26.0436 41.7685 25.6894 41.9616 25.2273C42.1548 24.7652 42.2514 24.2121 42.2514 23.5682C42.2514 22.9394 42.1567 22.3845 41.9673 21.9034C41.7779 21.4223 41.4976 21.0455 41.1264 20.7727C40.7552 20.5 40.2969 20.3636 39.7514 20.3636C39.1832 20.3636 38.7098 20.5076 38.331 20.7955C37.956 21.0833 37.6738 21.4697 37.4844 21.9545C37.2988 22.4394 37.206 22.9773 37.206 23.5682C37.206 24.1742 37.3007 24.7102 37.4901 25.1761C37.6832 25.6383 37.9673 26.0019 38.3423 26.267C38.7211 26.5284 39.1908 26.6591 39.7514 26.6591ZM52.1151 16.3636V28H50.706V16.3636H52.1151ZM56.0994 22.75V28H54.7585V19.2727H56.054V20.6364H56.1676C56.3722 20.1932 56.6828 19.8371 57.0994 19.5682C57.5161 19.2955 58.054 19.1591 58.7131 19.1591C59.304 19.1591 59.821 19.2803 60.2642 19.5227C60.7074 19.7614 61.0521 20.125 61.2983 20.6136C61.5445 21.0985 61.6676 21.7121 61.6676 22.4545V28H60.3267V22.5455C60.3267 21.8598 60.1487 21.3258 59.7926 20.9432C59.4366 20.5568 58.9479 20.3636 58.3267 20.3636C57.8987 20.3636 57.5161 20.4564 57.179 20.642C56.8456 20.8277 56.5824 21.0985 56.3892 21.4545C56.196 21.8106 56.0994 22.2424 56.0994 22.75Z" fill="#072125"/>
</svg>
