<svg width="1440" height="519" viewBox="0 0 1440 519" fill="none" xmlns="http://www.w3.org/2000/svg">
<g clip-path="url(#clip0_60_9831)">
<rect width="1440" height="519" fill="#121212"/>
<path d="M1172.62 361.011C1172.62 307.895 1230.12 274.698 1276.12 301.256L1655.62 520.36C1701.62 546.918 1701.62 613.314 1655.62 639.872L1276.12 858.976C1230.12 885.534 1172.62 852.337 1172.62 799.22L1172.62 361.011Z" fill="#FFE090"/>
<path d="M1315.62 238.011C1315.62 184.895 1373.12 151.698 1419.12 178.256L1798.62 397.36C1844.62 423.918 1844.62 490.314 1798.62 516.872L1419.12 735.976C1373.12 762.534 1315.62 729.337 1315.62 676.22L1315.62 238.011Z" fill="#FF8C4C"/>
<path d="M482.816 183C482.645 183 482.56 182.893 482.56 182.68L482.688 138.712C482.688 138.541 482.773 138.456 482.944 138.456H495.232C497.664 138.456 499.84 139.053 501.76 140.248C503.68 141.4 505.195 142.936 506.304 144.856C507.413 146.776 507.968 148.867 507.968 151.128C507.968 152.963 507.541 154.669 506.688 156.248C505.877 157.827 504.896 159.107 503.744 160.088C504.981 161.325 505.941 162.755 506.624 164.376C507.307 165.997 507.648 167.704 507.648 169.496C507.648 171.971 507.051 174.232 505.856 176.28C504.661 178.328 503.04 179.971 500.992 181.208C498.987 182.403 496.747 183 494.272 183H482.816ZM490.368 156.12H495.232C496.725 156.12 497.92 155.608 498.816 154.584C499.755 153.517 500.224 152.365 500.224 151.128C500.224 149.763 499.733 148.589 498.752 147.608C497.771 146.584 496.597 146.072 495.232 146.072H490.368V156.12ZM490.304 175.192H494.272C495.808 175.192 497.131 174.637 498.24 173.528C499.349 172.376 499.904 171.032 499.904 169.496C499.904 167.96 499.349 166.637 498.24 165.528C497.131 164.419 495.808 163.864 494.272 163.864H490.368L490.304 175.192ZM512.504 183C512.333 183 512.248 182.893 512.248 182.68L512.312 138.712C512.312 138.541 512.397 138.456 512.568 138.456H533.112C533.282 138.456 533.368 138.563 533.368 138.776V145.944C533.368 146.115 533.282 146.2 533.112 146.2H519.992V156.184H533.112C533.282 156.184 533.368 156.269 533.368 156.44L533.432 163.672C533.432 163.843 533.346 163.928 533.176 163.928H519.992V175.128H533.176C533.346 175.128 533.432 175.235 533.432 175.448V182.744C533.432 182.915 533.346 183 533.176 183H512.504ZM549.899 183.64C547.552 183.64 545.419 183.064 543.499 181.912C541.621 180.717 540.128 179.139 539.019 177.176C537.909 175.213 537.355 173.016 537.355 170.584L537.419 150.616C537.419 148.269 537.952 146.136 539.019 144.216C540.128 142.253 541.621 140.696 543.499 139.544C545.419 138.349 547.552 137.752 549.899 137.752C552.245 137.752 554.357 138.328 556.235 139.48C558.112 140.632 559.605 142.189 560.715 144.152C561.824 146.072 562.379 148.227 562.379 150.616V153.56C562.379 153.731 562.293 153.816 562.123 153.816H554.955C554.784 153.816 554.699 153.731 554.699 153.56V150.616C554.699 149.208 554.229 147.992 553.291 146.968C552.395 145.944 551.264 145.432 549.899 145.432C548.363 145.432 547.189 145.965 546.379 147.032C545.568 148.056 545.163 149.251 545.163 150.616V170.584C545.163 172.163 545.611 173.443 546.507 174.424C547.445 175.405 548.576 175.896 549.899 175.896C551.264 175.896 552.395 175.363 553.291 174.296C554.229 173.187 554.699 171.949 554.699 170.584V167.64C554.699 167.469 554.784 167.384 554.955 167.384H562.187C562.357 167.384 562.443 167.469 562.443 167.64V170.584C562.443 173.016 561.867 175.213 560.715 177.176C559.605 179.139 558.112 180.717 556.235 181.912C554.357 183.064 552.245 183.64 549.899 183.64ZM578.963 183.64C576.659 183.64 574.547 183.064 572.627 181.912C570.749 180.717 569.235 179.16 568.083 177.24C566.931 175.277 566.355 173.123 566.355 170.776L566.419 150.488C566.419 148.141 566.973 146.008 568.083 144.088C569.235 142.168 570.771 140.632 572.691 139.48C574.611 138.328 576.701 137.752 578.963 137.752C581.267 137.752 583.357 138.328 585.235 139.48C587.112 140.632 588.605 142.168 589.715 144.088C590.867 146.008 591.443 148.141 591.443 150.488L591.507 170.776C591.507 173.123 590.931 175.277 589.779 177.24C588.669 179.16 587.155 180.717 585.235 181.912C583.357 183.064 581.267 183.64 578.963 183.64ZM578.963 175.896C580.243 175.896 581.352 175.384 582.291 174.36C583.272 173.293 583.763 172.099 583.763 170.776L583.699 150.488C583.699 149.08 583.251 147.885 582.355 146.904C581.459 145.923 580.328 145.432 578.963 145.432C577.64 145.432 576.509 145.923 575.571 146.904C574.632 147.843 574.163 149.037 574.163 150.488V170.776C574.163 172.184 574.632 173.4 575.571 174.424C576.509 175.405 577.64 175.896 578.963 175.896ZM596.629 183C596.458 183 596.373 182.893 596.373 182.68L596.501 138.712C596.501 138.541 596.586 138.456 596.757 138.456H604.565C604.735 138.456 604.885 138.541 605.013 138.712L610.837 147.16L616.661 138.712C616.789 138.541 616.938 138.456 617.109 138.456H624.981C625.151 138.456 625.237 138.541 625.237 138.712L625.365 182.68C625.365 182.893 625.279 183 625.109 183H617.877C617.706 183 617.621 182.893 617.621 182.68L617.557 150.04L610.837 159.768L604.181 150.04L604.117 182.68C604.117 182.893 604.031 183 603.861 183H596.629ZM631.004 183C630.833 183 630.748 182.893 630.748 182.68L630.812 138.712C630.812 138.541 630.897 138.456 631.068 138.456H651.612C651.782 138.456 651.868 138.563 651.868 138.776V145.944C651.868 146.115 651.782 146.2 651.612 146.2H638.492V156.184H651.612C651.782 156.184 651.868 156.269 651.868 156.44L651.932 163.672C651.932 163.843 651.846 163.928 651.676 163.928H638.492V175.128H651.676C651.846 175.128 651.932 175.235 651.932 175.448V182.744C651.932 182.915 651.846 183 651.676 183H631.004ZM666.447 182.68L674.383 138.712C674.425 138.541 674.532 138.456 674.703 138.456H683.983C684.153 138.456 684.26 138.541 684.303 138.712L691.919 182.68C691.961 182.893 691.876 183 691.663 183H684.559C684.388 183 684.281 182.893 684.239 182.68L683.535 178.008H674.831L674.127 182.68C674.084 182.893 673.977 183 673.807 183H666.703C666.532 183 666.447 182.893 666.447 182.68ZM676.111 171.16H682.255L679.631 153.176L679.247 150.808L678.991 153.176L676.111 171.16ZM696.511 183C696.17 183 695.999 182.851 695.999 182.552L695.935 138.968C695.935 138.627 696.106 138.456 696.447 138.456H702.207L713.023 163.672L712.703 138.968C712.703 138.627 712.895 138.456 713.279 138.456H719.615C719.871 138.456 719.999 138.627 719.999 138.968L720.063 182.616C720.063 182.872 719.956 183 719.743 183H714.111L703.039 159.448L703.487 182.488C703.487 182.829 703.295 183 702.911 183H696.511ZM746.963 183.64C744.659 183.64 742.547 183.064 740.627 181.912C738.749 180.717 737.235 179.16 736.083 177.24C734.931 175.277 734.355 173.123 734.355 170.776L734.419 150.488C734.419 148.141 734.973 146.008 736.083 144.088C737.235 142.168 738.771 140.632 740.691 139.48C742.611 138.328 744.701 137.752 746.963 137.752C749.267 137.752 751.357 138.328 753.235 139.48C755.112 140.632 756.605 142.168 757.715 144.088C758.867 146.008 759.443 148.141 759.443 150.488L759.507 170.776C759.507 173.123 758.931 175.277 757.779 177.24C756.669 179.16 755.155 180.717 753.235 181.912C751.357 183.064 749.267 183.64 746.963 183.64ZM746.963 175.896C748.243 175.896 749.352 175.384 750.291 174.36C751.272 173.293 751.763 172.099 751.763 170.776L751.699 150.488C751.699 149.08 751.251 147.885 750.355 146.904C749.459 145.923 748.328 145.432 746.963 145.432C745.64 145.432 744.509 145.923 743.571 146.904C742.632 147.843 742.163 149.037 742.163 150.488V170.776C742.163 172.184 742.632 173.4 743.571 174.424C744.509 175.405 745.64 175.896 746.963 175.896ZM764.629 183C764.458 183 764.373 182.893 764.373 182.68L764.501 138.712C764.501 138.541 764.586 138.456 764.757 138.456H777.685C779.989 138.456 782.101 139.032 784.021 140.184C785.983 141.293 787.541 142.808 788.693 144.728C789.845 146.605 790.421 148.739 790.421 151.128C790.421 152.707 790.186 154.136 789.717 155.416C789.247 156.653 788.693 157.72 788.053 158.616C787.413 159.469 786.837 160.109 786.325 160.536C788.629 163.096 789.781 166.104 789.781 169.56L789.845 182.68C789.845 182.893 789.738 183 789.525 183H782.293C782.122 183 782.037 182.936 782.037 182.808V169.56C782.037 168.024 781.482 166.701 780.373 165.592C779.306 164.44 777.983 163.864 776.405 163.864H772.181L772.117 182.68C772.117 182.893 772.031 183 771.861 183H764.629ZM772.181 156.184H777.685C779.007 156.184 780.181 155.693 781.205 154.712C782.229 153.731 782.741 152.536 782.741 151.128C782.741 149.763 782.229 148.589 781.205 147.608C780.223 146.627 779.05 146.136 777.685 146.136H772.181V156.184ZM806.647 183.64C804.343 183.64 802.252 183.064 800.375 181.912C798.498 180.76 796.983 179.224 795.831 177.304C794.722 175.341 794.167 173.165 794.167 170.776V150.488C794.167 148.184 794.722 146.072 795.831 144.152C796.983 142.189 798.498 140.632 800.375 139.48C802.295 138.328 804.386 137.752 806.647 137.752C808.994 137.752 811.106 138.328 812.983 139.48C814.903 140.589 816.418 142.104 817.527 144.024C818.636 145.944 819.191 148.099 819.191 150.488V153.432C819.191 153.603 819.084 153.688 818.871 153.688H811.703C811.532 153.688 811.447 153.603 811.447 153.432V151C811.447 149.379 810.978 148.035 810.039 146.968C809.143 145.901 808.012 145.368 806.647 145.368C805.41 145.368 804.3 145.88 803.319 146.904C802.38 147.928 801.911 149.123 801.911 150.488V170.776C801.911 172.184 802.38 173.4 803.319 174.424C804.258 175.405 805.367 175.896 806.647 175.896C808.012 175.896 809.143 175.405 810.039 174.424C810.978 173.443 811.447 172.227 811.447 170.776V167.64H806.967C806.754 167.64 806.647 167.533 806.647 167.32V160.152C806.647 159.939 806.754 159.832 806.967 159.832H818.935C819.106 159.832 819.191 159.939 819.191 160.152V170.776C819.191 173.165 818.615 175.341 817.463 177.304C816.354 179.224 814.86 180.76 812.983 181.912C811.106 183.064 808.994 183.64 806.647 183.64ZM820.447 182.68L828.383 138.712C828.425 138.541 828.532 138.456 828.703 138.456H837.983C838.153 138.456 838.26 138.541 838.303 138.712L845.919 182.68C845.961 182.893 845.876 183 845.663 183H838.559C838.388 183 838.281 182.893 838.239 182.68L837.535 178.008H828.831L828.127 182.68C828.084 182.893 827.977 183 827.807 183H820.703C820.532 183 820.447 182.893 820.447 182.68ZM830.111 171.16H836.255L833.631 153.176L833.247 150.808L832.991 153.176L830.111 171.16ZM850.511 183C850.17 183 849.999 182.851 849.999 182.552L849.935 138.968C849.935 138.627 850.106 138.456 850.447 138.456H856.207L867.023 163.672L866.703 138.968C866.703 138.627 866.895 138.456 867.279 138.456H873.615C873.871 138.456 873.999 138.627 873.999 138.968L874.063 182.616C874.063 182.872 873.956 183 873.743 183H868.111L857.039 159.448L857.487 182.488C857.487 182.829 857.295 183 856.911 183H850.511ZM879.943 183C879.729 183 879.623 182.893 879.623 182.68L879.687 138.712C879.687 138.541 879.772 138.456 879.943 138.456H887.111C887.281 138.456 887.367 138.541 887.367 138.712L887.431 182.68C887.431 182.893 887.345 183 887.175 183H879.943ZM891.332 183C891.119 183 891.012 182.893 891.012 182.68L891.076 175.704L906.756 145.752H891.908C891.737 145.752 891.652 145.667 891.652 145.496V138.776C891.652 138.563 891.737 138.456 891.908 138.456H915.076C915.289 138.456 915.396 138.563 915.396 138.776V145.688L899.78 175.512H915.204C915.375 175.512 915.46 175.619 915.46 175.832L915.524 182.68C915.524 182.893 915.417 183 915.204 183H891.332ZM919.816 183C919.645 183 919.56 182.893 919.56 182.68L919.624 138.712C919.624 138.541 919.709 138.456 919.88 138.456H940.424C940.595 138.456 940.68 138.563 940.68 138.776V145.944C940.68 146.115 940.595 146.2 940.424 146.2H927.304V156.184H940.424C940.595 156.184 940.68 156.269 940.68 156.44L940.744 163.672C940.744 163.843 940.659 163.928 940.488 163.928H927.304V175.128H940.488C940.659 175.128 940.744 175.235 940.744 175.448V182.744C940.744 182.915 940.659 183 940.488 183H919.816ZM946.691 183C946.52 183 946.435 182.893 946.435 182.68L946.563 138.712C946.563 138.541 946.648 138.456 946.819 138.456H959.747C962.051 138.456 964.163 139.032 966.083 140.184C968.046 141.293 969.603 142.808 970.755 144.728C971.907 146.605 972.483 148.739 972.483 151.128C972.483 152.707 972.248 154.136 971.779 155.416C971.31 156.653 970.755 157.72 970.115 158.616C969.475 159.469 968.899 160.109 968.387 160.536C970.691 163.096 971.843 166.104 971.843 169.56L971.907 182.68C971.907 182.893 971.8 183 971.587 183H964.355C964.184 183 964.099 182.936 964.099 182.808V169.56C964.099 168.024 963.544 166.701 962.435 165.592C961.368 164.44 960.046 163.864 958.467 163.864H954.243L954.179 182.68C954.179 182.893 954.094 183 953.923 183H946.691ZM954.243 156.184H959.747C961.07 156.184 962.243 155.693 963.267 154.712C964.291 153.731 964.803 152.536 964.803 151.128C964.803 149.763 964.291 148.589 963.267 147.608C962.286 146.627 961.112 146.136 959.747 146.136H954.243V156.184ZM978.974 171.224C978.803 171.224 978.697 171.117 978.654 170.904L977.31 156.184V138.776C977.31 138.563 977.395 138.456 977.566 138.456H984.734C984.947 138.456 985.054 138.563 985.054 138.776L984.99 156.184L983.646 170.904C983.603 171.117 983.497 171.224 983.326 171.224H978.974ZM977.566 183C977.395 183 977.31 182.893 977.31 182.68V175.704C977.31 175.533 977.395 175.448 977.566 175.448H984.734C984.905 175.448 984.99 175.533 984.99 175.704V182.68C984.99 182.893 984.905 183 984.734 183H977.566Z" fill="white"/>
<path d="M508.484 265L505.084 251.04H506.864L508.364 257.76L509.524 262.98H509.564L510.864 257.76L512.624 251.04H514.544L516.244 257.76L517.544 262.96H517.604L518.804 257.76L520.384 251.04H522.104L518.524 265H516.664L514.844 258.04L513.564 252.92H513.524L512.204 258.04L510.344 265H508.484ZM531.501 265C530.901 265 530.467 264.84 530.201 264.52C529.947 264.2 529.787 263.8 529.721 263.32H529.621C529.394 263.96 529.021 264.44 528.501 264.76C527.981 265.08 527.361 265.24 526.641 265.24C525.547 265.24 524.694 264.96 524.081 264.4C523.481 263.84 523.181 263.08 523.181 262.12C523.181 261.147 523.534 260.4 524.241 259.88C524.961 259.36 526.074 259.1 527.581 259.1H529.621V258.08C529.621 257.347 529.421 256.787 529.021 256.4C528.621 256.013 528.007 255.82 527.181 255.82C526.554 255.82 526.027 255.96 525.601 256.24C525.187 256.52 524.841 256.893 524.561 257.36L523.601 256.46C523.881 255.9 524.327 255.427 524.941 255.04C525.554 254.64 526.327 254.44 527.261 254.44C528.514 254.44 529.487 254.747 530.181 255.36C530.874 255.973 531.221 256.827 531.221 257.92V263.6H532.401V265H531.501ZM526.901 263.88C527.301 263.88 527.667 263.833 528.001 263.74C528.334 263.647 528.621 263.513 528.861 263.34C529.101 263.167 529.287 262.967 529.421 262.74C529.554 262.513 529.621 262.267 529.621 262V260.3H527.501C526.581 260.3 525.907 260.433 525.481 260.7C525.067 260.967 524.861 261.353 524.861 261.86V262.28C524.861 262.787 525.041 263.18 525.401 263.46C525.774 263.74 526.274 263.88 526.901 263.88ZM534.684 265V254.68H536.284V256.36H536.364C536.618 255.773 536.971 255.307 537.424 254.96C537.891 254.613 538.511 254.44 539.284 254.44C540.351 254.44 541.191 254.787 541.804 255.48C542.431 256.16 542.744 257.127 542.744 258.38V265H541.144V258.66C541.144 256.807 540.364 255.88 538.804 255.88C538.484 255.88 538.171 255.92 537.864 256C537.571 256.08 537.304 256.2 537.064 256.36C536.824 256.52 536.631 256.727 536.484 256.98C536.351 257.22 536.284 257.507 536.284 257.84V265H534.684ZM548.332 265C547.772 265 547.345 264.847 547.052 264.54C546.772 264.22 546.632 263.807 546.632 263.3V256.08H544.932V254.68H545.892C546.238 254.68 546.472 254.613 546.592 254.48C546.725 254.333 546.792 254.087 546.792 253.74V251.82H548.232V254.68H550.492V256.08H548.232V263.6H550.332V265H548.332ZM562.65 252.52V265H560.97V252.52H556.53V251.04H567.09V252.52H562.65ZM571.827 265.24C571.133 265.24 570.5 265.113 569.927 264.86C569.353 264.607 568.86 264.247 568.447 263.78C568.047 263.3 567.733 262.733 567.507 262.08C567.28 261.413 567.167 260.667 567.167 259.84C567.167 259.027 567.28 258.287 567.507 257.62C567.733 256.953 568.047 256.387 568.447 255.92C568.86 255.44 569.353 255.073 569.927 254.82C570.5 254.567 571.133 254.44 571.827 254.44C572.52 254.44 573.147 254.567 573.707 254.82C574.28 255.073 574.773 255.44 575.187 255.92C575.6 256.387 575.92 256.953 576.147 257.62C576.373 258.287 576.487 259.027 576.487 259.84C576.487 260.667 576.373 261.413 576.147 262.08C575.92 262.733 575.6 263.3 575.187 263.78C574.773 264.247 574.28 264.607 573.707 264.86C573.147 265.113 572.52 265.24 571.827 265.24ZM571.827 263.82C572.693 263.82 573.4 263.553 573.947 263.02C574.493 262.487 574.767 261.673 574.767 260.58V259.1C574.767 258.007 574.493 257.193 573.947 256.66C573.4 256.127 572.693 255.86 571.827 255.86C570.96 255.86 570.253 256.127 569.707 256.66C569.16 257.193 568.887 258.007 568.887 259.1V260.58C568.887 261.673 569.16 262.487 569.707 263.02C570.253 263.553 570.96 263.82 571.827 263.82ZM592.745 258.68H585.685V265H584.005V251.04H585.685V257.2H592.745V251.04H594.425V265H592.745V258.68ZM601.885 265.24C601.192 265.24 600.558 265.113 599.985 264.86C599.412 264.607 598.918 264.247 598.505 263.78C598.105 263.3 597.792 262.733 597.565 262.08C597.338 261.413 597.225 260.667 597.225 259.84C597.225 259.027 597.338 258.287 597.565 257.62C597.792 256.953 598.105 256.387 598.505 255.92C598.918 255.44 599.412 255.073 599.985 254.82C600.558 254.567 601.192 254.44 601.885 254.44C602.578 254.44 603.205 254.567 603.765 254.82C604.338 255.073 604.832 255.44 605.245 255.92C605.658 256.387 605.978 256.953 606.205 257.62C606.432 258.287 606.545 259.027 606.545 259.84C606.545 260.667 606.432 261.413 606.205 262.08C605.978 262.733 605.658 263.3 605.245 263.78C604.832 264.247 604.338 264.607 603.765 264.86C603.205 265.113 602.578 265.24 601.885 265.24ZM601.885 263.82C602.752 263.82 603.458 263.553 604.005 263.02C604.552 262.487 604.825 261.673 604.825 260.58V259.1C604.825 258.007 604.552 257.193 604.005 256.66C603.458 256.127 602.752 255.86 601.885 255.86C601.018 255.86 600.312 256.127 599.765 256.66C599.218 257.193 598.945 258.007 598.945 259.1V260.58C598.945 261.673 599.218 262.487 599.765 263.02C600.312 263.553 601.018 263.82 601.885 263.82ZM612.277 265.24C611.317 265.24 610.51 265.06 609.857 264.7C609.217 264.327 608.663 263.833 608.197 263.22L609.337 262.3C609.737 262.807 610.183 263.2 610.677 263.48C611.17 263.747 611.743 263.88 612.397 263.88C613.077 263.88 613.603 263.733 613.977 263.44C614.363 263.147 614.557 262.733 614.557 262.2C614.557 261.8 614.423 261.46 614.157 261.18C613.903 260.887 613.437 260.687 612.757 260.58L611.937 260.46C611.457 260.393 611.017 260.293 610.617 260.16C610.217 260.013 609.863 259.827 609.557 259.6C609.263 259.36 609.03 259.067 608.857 258.72C608.697 258.373 608.617 257.96 608.617 257.48C608.617 256.973 608.71 256.533 608.897 256.16C609.083 255.773 609.337 255.453 609.657 255.2C609.99 254.947 610.383 254.76 610.837 254.64C611.29 254.507 611.777 254.44 612.297 254.44C613.137 254.44 613.837 254.587 614.397 254.88C614.97 255.173 615.47 255.58 615.897 256.1L614.837 257.06C614.61 256.74 614.277 256.453 613.837 256.2C613.397 255.933 612.843 255.8 612.177 255.8C611.51 255.8 611.003 255.947 610.657 256.24C610.323 256.52 610.157 256.907 610.157 257.4C610.157 257.907 610.323 258.273 610.657 258.5C611.003 258.727 611.497 258.893 612.137 259L612.937 259.12C614.083 259.293 614.897 259.627 615.377 260.12C615.857 260.6 616.097 261.233 616.097 262.02C616.097 263.02 615.757 263.807 615.077 264.38C614.397 264.953 613.463 265.24 612.277 265.24ZM621.066 265C620.506 265 620.079 264.847 619.786 264.54C619.506 264.22 619.366 263.807 619.366 263.3V256.08H617.666V254.68H618.626C618.973 254.68 619.206 254.613 619.326 254.48C619.459 254.333 619.526 254.087 619.526 253.74V251.82H620.966V254.68H623.226V256.08H620.966V263.6H623.066V265H621.066ZM639.424 265L638.024 260.88H632.384L630.984 265H629.284L634.164 251.04H636.304L641.184 265H639.424ZM635.244 252.6H635.144L632.784 259.4H637.604L635.244 252.6ZM643.337 265V254.68H644.937V256.36H645.017C645.27 255.773 645.623 255.307 646.077 254.96C646.543 254.613 647.163 254.44 647.937 254.44C649.003 254.44 649.843 254.787 650.457 255.48C651.083 256.16 651.397 257.127 651.397 258.38V265H649.797V258.66C649.797 256.807 649.017 255.88 647.457 255.88C647.137 255.88 646.823 255.92 646.517 256C646.223 256.08 645.957 256.2 645.717 256.36C645.477 256.52 645.283 256.727 645.137 256.98C645.003 257.22 644.937 257.507 644.937 257.84V265H643.337ZM659.59 265V251.04H668.11V252.52H661.27V257.2H667.71V258.68H661.27V263.52H668.11V265H659.59ZM673.371 265L669.751 254.68H671.351L673.151 259.8L674.271 263.32H674.371L675.491 259.8L677.331 254.68H678.871L675.231 265H673.371ZM684.658 265.24C683.951 265.24 683.311 265.113 682.738 264.86C682.178 264.607 681.691 264.247 681.278 263.78C680.878 263.3 680.565 262.733 680.338 262.08C680.125 261.413 680.018 260.667 680.018 259.84C680.018 259.027 680.125 258.287 680.338 257.62C680.565 256.953 680.878 256.387 681.278 255.92C681.691 255.44 682.178 255.073 682.738 254.82C683.311 254.567 683.951 254.44 684.658 254.44C685.351 254.44 685.971 254.567 686.518 254.82C687.065 255.073 687.531 255.427 687.918 255.88C688.305 256.32 688.598 256.847 688.798 257.46C689.011 258.073 689.118 258.747 689.118 259.48V260.24H681.698V260.72C681.698 261.16 681.765 261.573 681.898 261.96C682.045 262.333 682.245 262.66 682.498 262.94C682.765 263.22 683.085 263.44 683.458 263.6C683.845 263.76 684.278 263.84 684.758 263.84C685.411 263.84 685.978 263.687 686.458 263.38C686.951 263.073 687.331 262.633 687.598 262.06L688.738 262.88C688.405 263.587 687.885 264.16 687.178 264.6C686.471 265.027 685.631 265.24 684.658 265.24ZM684.658 255.78C684.218 255.78 683.818 255.86 683.458 256.02C683.098 256.167 682.785 256.38 682.518 256.66C682.265 256.94 682.065 257.273 681.918 257.66C681.771 258.033 681.698 258.447 681.698 258.9V259.04H687.398V258.82C687.398 257.9 687.145 257.167 686.638 256.62C686.145 256.06 685.485 255.78 684.658 255.78ZM691.755 265V254.68H693.355V256.36H693.435C693.688 255.773 694.041 255.307 694.495 254.96C694.961 254.613 695.581 254.44 696.355 254.44C697.421 254.44 698.261 254.787 698.875 255.48C699.501 256.16 699.815 257.127 699.815 258.38V265H698.215V258.66C698.215 256.807 697.435 255.88 695.875 255.88C695.555 255.88 695.241 255.92 694.935 256C694.641 256.08 694.375 256.2 694.135 256.36C693.895 256.52 693.701 256.727 693.555 256.98C693.421 257.22 693.355 257.507 693.355 257.84V265H691.755ZM705.402 265C704.842 265 704.415 264.847 704.122 264.54C703.842 264.22 703.702 263.807 703.702 263.3V256.08H702.002V254.68H702.962C703.309 254.68 703.542 254.613 703.662 254.48C703.795 254.333 703.862 254.087 703.862 253.74V251.82H705.302V254.68H707.562V256.08H705.302V263.6H707.402V265H705.402ZM712.014 260.84V257.56C713.107 257.507 713.96 257.24 714.574 256.76C715.2 256.28 715.514 255.62 715.514 254.78V254.5C715.514 253.82 715.3 253.28 714.874 252.88C714.447 252.467 713.874 252.26 713.154 252.26C712.38 252.26 711.76 252.48 711.294 252.92C710.84 253.36 710.534 253.92 710.374 254.6L708.894 254.04C709.014 253.613 709.187 253.207 709.414 252.82C709.654 252.42 709.947 252.073 710.294 251.78C710.654 251.473 711.074 251.233 711.554 251.06C712.034 250.887 712.587 250.8 713.214 250.8C714.454 250.8 715.434 251.14 716.154 251.82C716.874 252.5 717.234 253.42 717.234 254.58C717.234 255.22 717.12 255.78 716.894 256.26C716.68 256.727 716.4 257.127 716.054 257.46C715.707 257.793 715.314 258.06 714.874 258.26C714.434 258.46 713.994 258.6 713.554 258.68V260.84H712.014ZM712.794 265.24C712.367 265.24 712.054 265.133 711.854 264.92C711.667 264.707 711.574 264.427 711.574 264.08V263.82C711.574 263.473 711.667 263.193 711.854 262.98C712.054 262.767 712.367 262.66 712.794 262.66C713.22 262.66 713.527 262.767 713.714 262.98C713.914 263.193 714.014 263.473 714.014 263.82V264.08C714.014 264.427 713.914 264.707 713.714 264.92C713.527 265.133 713.22 265.24 712.794 265.24ZM729.471 265.24C727.698 265.24 726.318 264.64 725.331 263.44C724.345 262.227 723.851 260.447 723.851 258.1C723.851 255.753 724.345 253.953 725.331 252.7C726.318 251.433 727.698 250.8 729.471 250.8C730.645 250.8 731.625 251.067 732.411 251.6C733.211 252.133 733.831 252.887 734.271 253.86L732.911 254.68C732.631 253.96 732.205 253.387 731.631 252.96C731.058 252.52 730.338 252.3 729.471 252.3C728.871 252.3 728.331 252.413 727.851 252.64C727.385 252.867 726.985 253.193 726.651 253.62C726.331 254.033 726.085 254.533 725.911 255.12C725.738 255.693 725.651 256.34 725.651 257.06V259.14C725.651 260.58 725.985 261.707 726.651 262.52C727.318 263.333 728.258 263.74 729.471 263.74C730.365 263.74 731.111 263.513 731.711 263.06C732.311 262.593 732.751 261.98 733.031 261.22L734.371 262.06C733.931 263.047 733.298 263.827 732.471 264.4C731.645 264.96 730.645 265.24 729.471 265.24ZM738.513 265C737.953 265 737.527 264.847 737.233 264.54C736.953 264.22 736.813 263.82 736.813 263.34V250.2H738.413V263.6H739.933V265H738.513ZM743.062 252.26C742.716 252.26 742.463 252.18 742.303 252.02C742.156 251.847 742.083 251.627 742.083 251.36V251.1C742.083 250.833 742.156 250.62 742.303 250.46C742.463 250.287 742.716 250.2 743.062 250.2C743.409 250.2 743.656 250.287 743.803 250.46C743.963 250.62 744.043 250.833 744.043 251.1V251.36C744.043 251.627 743.963 251.847 743.803 252.02C743.656 252.18 743.409 252.26 743.062 252.26ZM742.263 254.68H743.863V265H742.263V254.68ZM751.103 265.24C750.383 265.24 749.736 265.113 749.163 264.86C748.589 264.607 748.103 264.247 747.703 263.78C747.316 263.313 747.016 262.747 746.803 262.08C746.603 261.413 746.503 260.667 746.503 259.84C746.503 259.013 746.603 258.267 746.803 257.6C747.016 256.933 747.316 256.367 747.703 255.9C748.103 255.433 748.589 255.073 749.163 254.82C749.736 254.567 750.383 254.44 751.103 254.44C752.129 254.44 752.949 254.667 753.563 255.12C754.189 255.56 754.656 256.14 754.963 256.86L753.623 257.54C753.436 257.007 753.129 256.593 752.703 256.3C752.276 256.007 751.743 255.86 751.103 255.86C750.623 255.86 750.203 255.94 749.843 256.1C749.483 256.247 749.183 256.46 748.943 256.74C748.703 257.007 748.523 257.333 748.403 257.72C748.283 258.093 748.223 258.507 748.223 258.96V260.72C748.223 261.627 748.463 262.373 748.943 262.96C749.436 263.533 750.156 263.82 751.103 263.82C752.396 263.82 753.329 263.22 753.903 262.02L755.063 262.8C754.729 263.547 754.229 264.14 753.563 264.58C752.909 265.02 752.089 265.24 751.103 265.24ZM757.321 250.2H758.921V259.58H759.001L760.581 257.82L763.501 254.68H765.441L761.621 258.76L765.821 265H763.881L760.461 259.74L758.921 261.32V265H757.321V250.2ZM777.975 265.24C777.068 265.24 776.248 265.087 775.515 264.78C774.795 264.46 774.175 264 773.655 263.4C773.148 262.787 772.755 262.033 772.475 261.14C772.195 260.233 772.055 259.193 772.055 258.02C772.055 256.847 772.195 255.813 772.475 254.92C772.755 254.027 773.148 253.273 773.655 252.66C774.175 252.047 774.795 251.587 775.515 251.28C776.248 250.96 777.068 250.8 777.975 250.8C778.868 250.8 779.681 250.96 780.415 251.28C781.148 251.587 781.768 252.047 782.275 252.66C782.795 253.273 783.195 254.027 783.475 254.92C783.755 255.813 783.895 256.847 783.895 258.02C783.895 259.193 783.755 260.233 783.475 261.14C783.195 262.033 782.795 262.787 782.275 263.4C781.768 264 781.148 264.46 780.415 264.78C779.681 265.087 778.868 265.24 777.975 265.24ZM777.975 263.74C778.575 263.74 779.128 263.633 779.635 263.42C780.141 263.207 780.575 262.9 780.935 262.5C781.308 262.1 781.595 261.62 781.795 261.06C781.995 260.5 782.095 259.873 782.095 259.18V256.86C782.095 256.167 781.995 255.54 781.795 254.98C781.595 254.42 781.308 253.94 780.935 253.54C780.575 253.14 780.141 252.833 779.635 252.62C779.128 252.407 778.575 252.3 777.975 252.3C777.375 252.3 776.821 252.407 776.315 252.62C775.808 252.833 775.368 253.14 774.995 253.54C774.635 253.94 774.355 254.42 774.155 254.98C773.955 255.54 773.855 256.167 773.855 256.86V259.18C773.855 259.873 773.955 260.5 774.155 261.06C774.355 261.62 774.635 262.1 774.995 262.5C775.368 262.9 775.808 263.207 776.315 263.42C776.821 263.633 777.375 263.74 777.975 263.74ZM786.755 265V254.68H788.355V256.36H788.435C788.688 255.773 789.041 255.307 789.495 254.96C789.961 254.613 790.581 254.44 791.355 254.44C792.421 254.44 793.261 254.787 793.875 255.48C794.501 256.16 794.815 257.127 794.815 258.38V265H793.215V258.66C793.215 256.807 792.435 255.88 790.875 255.88C790.555 255.88 790.241 255.92 789.935 256C789.641 256.08 789.375 256.2 789.135 256.36C788.895 256.52 788.701 256.727 788.555 256.98C788.421 257.22 788.355 257.507 788.355 257.84V265H786.755ZM807.708 252.52V265H806.028V252.52H801.588V251.04H812.148V252.52H807.708ZM814.294 250.2H815.894V256.36H815.974C816.227 255.773 816.58 255.307 817.034 254.96C817.5 254.613 818.12 254.44 818.894 254.44C819.96 254.44 820.8 254.787 821.414 255.48C822.04 256.16 822.354 257.127 822.354 258.38V265H820.754V258.66C820.754 256.807 819.974 255.88 818.414 255.88C818.094 255.88 817.78 255.92 817.474 256C817.18 256.08 816.914 256.2 816.674 256.36C816.434 256.52 816.24 256.727 816.094 256.98C815.96 257.22 815.894 257.507 815.894 257.84V265H814.294V250.2ZM829.541 265.24C828.834 265.24 828.194 265.113 827.621 264.86C827.061 264.607 826.574 264.247 826.161 263.78C825.761 263.3 825.448 262.733 825.221 262.08C825.008 261.413 824.901 260.667 824.901 259.84C824.901 259.027 825.008 258.287 825.221 257.62C825.448 256.953 825.761 256.387 826.161 255.92C826.574 255.44 827.061 255.073 827.621 254.82C828.194 254.567 828.834 254.44 829.541 254.44C830.234 254.44 830.854 254.567 831.401 254.82C831.948 255.073 832.414 255.427 832.801 255.88C833.188 256.32 833.481 256.847 833.681 257.46C833.894 258.073 834.001 258.747 834.001 259.48V260.24H826.581V260.72C826.581 261.16 826.648 261.573 826.781 261.96C826.928 262.333 827.128 262.66 827.381 262.94C827.648 263.22 827.968 263.44 828.341 263.6C828.728 263.76 829.161 263.84 829.641 263.84C830.294 263.84 830.861 263.687 831.341 263.38C831.834 263.073 832.214 262.633 832.481 262.06L833.621 262.88C833.288 263.587 832.768 264.16 832.061 264.6C831.354 265.027 830.514 265.24 829.541 265.24ZM829.541 255.78C829.101 255.78 828.701 255.86 828.341 256.02C827.981 256.167 827.668 256.38 827.401 256.66C827.148 256.94 826.948 257.273 826.801 257.66C826.654 258.033 826.581 258.447 826.581 258.9V259.04H832.281V258.82C832.281 257.9 832.028 257.167 831.521 256.62C831.028 256.06 830.368 255.78 829.541 255.78ZM841.524 265V251.04H843.204V263.52H849.144V265H841.524ZM852.184 252.26C851.837 252.26 851.584 252.18 851.424 252.02C851.277 251.847 851.204 251.627 851.204 251.36V251.1C851.204 250.833 851.277 250.62 851.424 250.46C851.584 250.287 851.837 250.2 852.184 250.2C852.53 250.2 852.777 250.287 852.924 250.46C853.084 250.62 853.164 250.833 853.164 251.1V251.36C853.164 251.627 853.084 251.847 852.924 252.02C852.777 252.18 852.53 252.26 852.184 252.26ZM851.384 254.68H852.984V265H851.384V254.68ZM856.384 265V254.68H857.984V256.36H858.064C858.317 255.773 858.67 255.307 859.124 254.96C859.59 254.613 860.21 254.44 860.984 254.44C862.05 254.44 862.89 254.787 863.504 255.48C864.13 256.16 864.444 257.127 864.444 258.38V265H862.844V258.66C862.844 256.807 862.064 255.88 860.504 255.88C860.184 255.88 859.87 255.92 859.564 256C859.27 256.08 859.004 256.2 858.764 256.36C858.524 256.52 858.33 256.727 858.184 256.98C858.05 257.22 857.984 257.507 857.984 257.84V265H856.384ZM867.751 250.2H869.351V259.58H869.431L871.011 257.82L873.931 254.68H875.871L872.051 258.76L876.251 265H874.311L870.891 259.74L869.351 261.32V265H867.751V250.2ZM883.184 251.04H888.924C890.084 251.04 890.991 251.367 891.644 252.02C892.311 252.673 892.644 253.547 892.644 254.64C892.644 255.16 892.571 255.6 892.424 255.96C892.278 256.32 892.091 256.62 891.864 256.86C891.638 257.087 891.391 257.26 891.124 257.38C890.858 257.487 890.611 257.56 890.384 257.6V257.72C890.638 257.733 890.918 257.8 891.224 257.92C891.544 258.04 891.844 258.233 892.124 258.5C892.404 258.753 892.638 259.087 892.824 259.5C893.024 259.9 893.124 260.387 893.124 260.96C893.124 261.533 893.031 262.067 892.844 262.56C892.671 263.053 892.424 263.48 892.104 263.84C891.784 264.2 891.404 264.487 890.964 264.7C890.524 264.9 890.044 265 889.524 265H883.184V251.04ZM884.864 263.52H889.004C889.724 263.52 890.291 263.34 890.704 262.98C891.118 262.607 891.324 262.067 891.324 261.36V260.68C891.324 259.973 891.118 259.44 890.704 259.08C890.291 258.707 889.724 258.52 889.004 258.52H884.864V263.52ZM884.864 257.08H888.724C889.391 257.08 889.911 256.913 890.284 256.58C890.658 256.247 890.844 255.767 890.844 255.14V254.46C890.844 253.833 890.658 253.353 890.284 253.02C889.911 252.687 889.391 252.52 888.724 252.52H884.864V257.08ZM899.971 265.24C899.264 265.24 898.624 265.113 898.051 264.86C897.491 264.607 897.004 264.247 896.591 263.78C896.191 263.3 895.877 262.733 895.651 262.08C895.437 261.413 895.331 260.667 895.331 259.84C895.331 259.027 895.437 258.287 895.651 257.62C895.877 256.953 896.191 256.387 896.591 255.92C897.004 255.44 897.491 255.073 898.051 254.82C898.624 254.567 899.264 254.44 899.971 254.44C900.664 254.44 901.284 254.567 901.831 254.82C902.377 255.073 902.844 255.427 903.231 255.88C903.617 256.32 903.911 256.847 904.111 257.46C904.324 258.073 904.431 258.747 904.431 259.48V260.24H897.011V260.72C897.011 261.16 897.077 261.573 897.211 261.96C897.357 262.333 897.557 262.66 897.811 262.94C898.077 263.22 898.397 263.44 898.771 263.6C899.157 263.76 899.591 263.84 900.071 263.84C900.724 263.84 901.291 263.687 901.771 263.38C902.264 263.073 902.644 262.633 902.911 262.06L904.051 262.88C903.717 263.587 903.197 264.16 902.491 264.6C901.784 265.027 900.944 265.24 899.971 265.24ZM899.971 255.78C899.531 255.78 899.131 255.86 898.771 256.02C898.411 256.167 898.097 256.38 897.831 256.66C897.577 256.94 897.377 257.273 897.231 257.66C897.084 258.033 897.011 258.447 897.011 258.9V259.04H902.711V258.82C902.711 257.9 902.457 257.167 901.951 256.62C901.457 256.06 900.797 255.78 899.971 255.78ZM908.767 265C908.207 265 907.781 264.847 907.487 264.54C907.207 264.22 907.067 263.82 907.067 263.34V250.2H908.667V263.6H910.187V265H908.767ZM916.416 265.24C915.723 265.24 915.09 265.113 914.516 264.86C913.943 264.607 913.45 264.247 913.036 263.78C912.636 263.3 912.323 262.733 912.096 262.08C911.87 261.413 911.756 260.667 911.756 259.84C911.756 259.027 911.87 258.287 912.096 257.62C912.323 256.953 912.636 256.387 913.036 255.92C913.45 255.44 913.943 255.073 914.516 254.82C915.09 254.567 915.723 254.44 916.416 254.44C917.11 254.44 917.736 254.567 918.296 254.82C918.87 255.073 919.363 255.44 919.776 255.92C920.19 256.387 920.51 256.953 920.736 257.62C920.963 258.287 921.076 259.027 921.076 259.84C921.076 260.667 920.963 261.413 920.736 262.08C920.51 262.733 920.19 263.3 919.776 263.78C919.363 264.247 918.87 264.607 918.296 264.86C917.736 265.113 917.11 265.24 916.416 265.24ZM916.416 263.82C917.283 263.82 917.99 263.553 918.536 263.02C919.083 262.487 919.356 261.673 919.356 260.58V259.1C919.356 258.007 919.083 257.193 918.536 256.66C917.99 256.127 917.283 255.86 916.416 255.86C915.55 255.86 914.843 256.127 914.296 256.66C913.75 257.193 913.476 258.007 913.476 259.1V260.58C913.476 261.673 913.75 262.487 914.296 263.02C914.843 263.553 915.55 263.82 916.416 263.82ZM922.53 254.68H924.09L925.19 259.14L926.29 263.66H926.33L927.59 259.14L928.89 254.68H930.31L931.65 259.14L932.93 263.66H932.97L934.03 259.14L935.15 254.68H936.65L933.91 265H931.93L930.49 260.04L929.59 256.9H929.55L928.67 260.04L927.23 265H925.29L922.53 254.68ZM948.548 252.52V265H946.868V252.52H942.428V251.04H952.988V252.52H948.548ZM957.725 265.24C957.032 265.24 956.398 265.113 955.825 264.86C955.252 264.607 954.758 264.247 954.345 263.78C953.945 263.3 953.632 262.733 953.405 262.08C953.178 261.413 953.065 260.667 953.065 259.84C953.065 259.027 953.178 258.287 953.405 257.62C953.632 256.953 953.945 256.387 954.345 255.92C954.758 255.44 955.252 255.073 955.825 254.82C956.398 254.567 957.032 254.44 957.725 254.44C958.418 254.44 959.045 254.567 959.605 254.82C960.178 255.073 960.672 255.44 961.085 255.92C961.498 256.387 961.818 256.953 962.045 257.62C962.272 258.287 962.385 259.027 962.385 259.84C962.385 260.667 962.272 261.413 962.045 262.08C961.818 262.733 961.498 263.3 961.085 263.78C960.672 264.247 960.178 264.607 959.605 264.86C959.045 265.113 958.418 265.24 957.725 265.24ZM957.725 263.82C958.592 263.82 959.298 263.553 959.845 263.02C960.392 262.487 960.665 261.673 960.665 260.58V259.1C960.665 258.007 960.392 257.193 959.845 256.66C959.298 256.127 958.592 255.86 957.725 255.86C956.858 255.86 956.152 256.127 955.605 256.66C955.058 257.193 954.785 258.007 954.785 259.1V260.58C954.785 261.673 955.058 262.487 955.605 263.02C956.152 263.553 956.858 263.82 957.725 263.82ZM509.493 295V281.04H511.173V293.52H517.113V295H509.493ZM523.037 295.24C522.33 295.24 521.69 295.113 521.117 294.86C520.557 294.607 520.07 294.247 519.657 293.78C519.257 293.3 518.944 292.733 518.717 292.08C518.504 291.413 518.397 290.667 518.397 289.84C518.397 289.027 518.504 288.287 518.717 287.62C518.944 286.953 519.257 286.387 519.657 285.92C520.07 285.44 520.557 285.073 521.117 284.82C521.69 284.567 522.33 284.44 523.037 284.44C523.73 284.44 524.35 284.567 524.897 284.82C525.444 285.073 525.91 285.427 526.297 285.88C526.684 286.32 526.977 286.847 527.177 287.46C527.39 288.073 527.497 288.747 527.497 289.48V290.24H520.077V290.72C520.077 291.16 520.144 291.573 520.277 291.96C520.424 292.333 520.624 292.66 520.877 292.94C521.144 293.22 521.464 293.44 521.837 293.6C522.224 293.76 522.657 293.84 523.137 293.84C523.79 293.84 524.357 293.687 524.837 293.38C525.33 293.073 525.71 292.633 525.977 292.06L527.117 292.88C526.784 293.587 526.264 294.16 525.557 294.6C524.85 295.027 524.01 295.24 523.037 295.24ZM523.037 285.78C522.597 285.78 522.197 285.86 521.837 286.02C521.477 286.167 521.164 286.38 520.897 286.66C520.644 286.94 520.444 287.273 520.297 287.66C520.15 288.033 520.077 288.447 520.077 288.9V289.04H525.777V288.82C525.777 287.9 525.524 287.167 525.017 286.62C524.524 286.06 523.864 285.78 523.037 285.78ZM537.634 295C537.034 295 536.6 294.84 536.334 294.52C536.08 294.2 535.92 293.8 535.854 293.32H535.754C535.527 293.96 535.154 294.44 534.634 294.76C534.114 295.08 533.494 295.24 532.774 295.24C531.68 295.24 530.827 294.96 530.214 294.4C529.614 293.84 529.314 293.08 529.314 292.12C529.314 291.147 529.667 290.4 530.374 289.88C531.094 289.36 532.207 289.1 533.714 289.1H535.754V288.08C535.754 287.347 535.554 286.787 535.154 286.4C534.754 286.013 534.14 285.82 533.314 285.82C532.687 285.82 532.16 285.96 531.734 286.24C531.32 286.52 530.974 286.893 530.694 287.36L529.734 286.46C530.014 285.9 530.46 285.427 531.074 285.04C531.687 284.64 532.46 284.44 533.394 284.44C534.647 284.44 535.62 284.747 536.314 285.36C537.007 285.973 537.354 286.827 537.354 287.92V293.6H538.534V295H537.634ZM533.034 293.88C533.434 293.88 533.8 293.833 534.134 293.74C534.467 293.647 534.754 293.513 534.994 293.34C535.234 293.167 535.42 292.967 535.554 292.74C535.687 292.513 535.754 292.267 535.754 292V290.3H533.634C532.714 290.3 532.04 290.433 531.614 290.7C531.2 290.967 530.994 291.353 530.994 291.86V292.28C530.994 292.787 531.174 293.18 531.534 293.46C531.907 293.74 532.407 293.88 533.034 293.88ZM540.817 295V284.68H542.417V286.58H542.517C542.704 286.087 543.037 285.647 543.517 285.26C543.997 284.873 544.657 284.68 545.497 284.68H546.117V286.28H545.177C544.311 286.28 543.631 286.447 543.137 286.78C542.657 287.1 542.417 287.507 542.417 288V295H540.817ZM548.161 295V284.68H549.761V286.36H549.841C550.094 285.773 550.448 285.307 550.901 284.96C551.368 284.613 551.988 284.44 552.761 284.44C553.828 284.44 554.668 284.787 555.281 285.48C555.908 286.16 556.221 287.127 556.221 288.38V295H554.621V288.66C554.621 286.807 553.841 285.88 552.281 285.88C551.961 285.88 551.648 285.92 551.341 286C551.048 286.08 550.781 286.2 550.541 286.36C550.301 286.52 550.108 286.727 549.961 286.98C549.828 287.22 549.761 287.507 549.761 287.84V295H548.161ZM575.295 283.24H575.195L574.015 285.58L570.675 291.66L567.335 285.58L566.155 283.24H566.055V295H564.415V281.04H566.655L570.655 288.56H570.755L574.775 281.04H576.935V295H575.295V283.24ZM584.385 295.24C583.692 295.24 583.058 295.113 582.485 294.86C581.912 294.607 581.418 294.247 581.005 293.78C580.605 293.3 580.292 292.733 580.065 292.08C579.838 291.413 579.725 290.667 579.725 289.84C579.725 289.027 579.838 288.287 580.065 287.62C580.292 286.953 580.605 286.387 581.005 285.92C581.418 285.44 581.912 285.073 582.485 284.82C583.058 284.567 583.692 284.44 584.385 284.44C585.078 284.44 585.705 284.567 586.265 284.82C586.838 285.073 587.332 285.44 587.745 285.92C588.158 286.387 588.478 286.953 588.705 287.62C588.932 288.287 589.045 289.027 589.045 289.84C589.045 290.667 588.932 291.413 588.705 292.08C588.478 292.733 588.158 293.3 587.745 293.78C587.332 294.247 586.838 294.607 586.265 294.86C585.705 295.113 585.078 295.24 584.385 295.24ZM584.385 293.82C585.252 293.82 585.958 293.553 586.505 293.02C587.052 292.487 587.325 291.673 587.325 290.58V289.1C587.325 288.007 587.052 287.193 586.505 286.66C585.958 286.127 585.252 285.86 584.385 285.86C583.518 285.86 582.812 286.127 582.265 286.66C581.718 287.193 581.445 288.007 581.445 289.1V290.58C581.445 291.673 581.718 292.487 582.265 293.02C582.812 293.553 583.518 293.82 584.385 293.82ZM591.677 295V284.68H593.277V286.58H593.377C593.563 286.087 593.897 285.647 594.377 285.26C594.857 284.873 595.517 284.68 596.357 284.68H596.977V286.28H596.037C595.17 286.28 594.49 286.447 593.997 286.78C593.517 287.1 593.277 287.507 593.277 288V295H591.677ZM602.803 295.24C602.096 295.24 601.456 295.113 600.883 294.86C600.323 294.607 599.836 294.247 599.423 293.78C599.023 293.3 598.709 292.733 598.483 292.08C598.269 291.413 598.163 290.667 598.163 289.84C598.163 289.027 598.269 288.287 598.483 287.62C598.709 286.953 599.023 286.387 599.423 285.92C599.836 285.44 600.323 285.073 600.883 284.82C601.456 284.567 602.096 284.44 602.803 284.44C603.496 284.44 604.116 284.567 604.663 284.82C605.209 285.073 605.676 285.427 606.063 285.88C606.449 286.32 606.743 286.847 606.943 287.46C607.156 288.073 607.263 288.747 607.263 289.48V290.24H599.843V290.72C599.843 291.16 599.909 291.573 600.043 291.96C600.189 292.333 600.389 292.66 600.643 292.94C600.909 293.22 601.229 293.44 601.603 293.6C601.989 293.76 602.423 293.84 602.903 293.84C603.556 293.84 604.123 293.687 604.603 293.38C605.096 293.073 605.476 292.633 605.743 292.06L606.883 292.88C606.549 293.587 606.029 294.16 605.323 294.6C604.616 295.027 603.776 295.24 602.803 295.24ZM602.803 285.78C602.363 285.78 601.963 285.86 601.603 286.02C601.243 286.167 600.929 286.38 600.663 286.66C600.409 286.94 600.209 287.273 600.063 287.66C599.916 288.033 599.843 288.447 599.843 288.9V289.04H605.543V288.82C605.543 287.9 605.289 287.167 604.783 286.62C604.289 286.06 603.629 285.78 602.803 285.78ZM623.526 295L622.126 290.88H616.486L615.086 295H613.386L618.266 281.04H620.406L625.286 295H623.526ZM619.346 282.6H619.246L616.886 289.4H621.706L619.346 282.6ZM627.438 280.2H629.038V286.36H629.118C629.385 285.707 629.772 285.227 630.278 284.92C630.798 284.6 631.418 284.44 632.138 284.44C632.778 284.44 633.358 284.567 633.878 284.82C634.398 285.073 634.838 285.433 635.198 285.9C635.572 286.367 635.852 286.933 636.038 287.6C636.238 288.267 636.338 289.013 636.338 289.84C636.338 290.667 636.238 291.413 636.038 292.08C635.852 292.747 635.572 293.313 635.198 293.78C634.838 294.247 634.398 294.607 633.878 294.86C633.358 295.113 632.778 295.24 632.138 295.24C630.738 295.24 629.732 294.6 629.118 293.32H629.038V295H627.438V280.2ZM631.698 293.8C632.605 293.8 633.318 293.52 633.838 292.96C634.358 292.387 634.618 291.64 634.618 290.72V288.96C634.618 288.04 634.358 287.3 633.838 286.74C633.318 286.167 632.605 285.88 631.698 285.88C631.338 285.88 630.992 285.933 630.658 286.04C630.338 286.133 630.058 286.267 629.818 286.44C629.578 286.613 629.385 286.827 629.238 287.08C629.105 287.32 629.038 287.58 629.038 287.86V291.7C629.038 292.033 629.105 292.333 629.238 292.6C629.385 292.853 629.578 293.073 629.818 293.26C630.058 293.433 630.338 293.567 630.658 293.66C630.992 293.753 631.338 293.8 631.698 293.8ZM642.94 295.24C642.247 295.24 641.613 295.113 641.04 294.86C640.467 294.607 639.973 294.247 639.56 293.78C639.16 293.3 638.847 292.733 638.62 292.08C638.393 291.413 638.28 290.667 638.28 289.84C638.28 289.027 638.393 288.287 638.62 287.62C638.847 286.953 639.16 286.387 639.56 285.92C639.973 285.44 640.467 285.073 641.04 284.82C641.613 284.567 642.247 284.44 642.94 284.44C643.633 284.44 644.26 284.567 644.82 284.82C645.393 285.073 645.887 285.44 646.3 285.92C646.713 286.387 647.033 286.953 647.26 287.62C647.487 288.287 647.6 289.027 647.6 289.84C647.6 290.667 647.487 291.413 647.26 292.08C647.033 292.733 646.713 293.3 646.3 293.78C645.887 294.247 645.393 294.607 644.82 294.86C644.26 295.113 643.633 295.24 642.94 295.24ZM642.94 293.82C643.807 293.82 644.513 293.553 645.06 293.02C645.607 292.487 645.88 291.673 645.88 290.58V289.1C645.88 288.007 645.607 287.193 645.06 286.66C644.513 286.127 643.807 285.86 642.94 285.86C642.073 285.86 641.367 286.127 640.82 286.66C640.273 287.193 640 288.007 640 289.1V290.58C640 291.673 640.273 292.487 640.82 293.02C641.367 293.553 642.073 293.82 642.94 293.82ZM656.591 293.32H656.511C656.405 293.56 656.271 293.8 656.111 294.04C655.965 294.267 655.778 294.473 655.551 294.66C655.325 294.833 655.051 294.973 654.731 295.08C654.411 295.187 654.038 295.24 653.611 295.24C652.545 295.24 651.698 294.9 651.071 294.22C650.445 293.527 650.131 292.553 650.131 291.3V284.68H651.731V291.02C651.731 292.873 652.518 293.8 654.091 293.8C654.411 293.8 654.718 293.76 655.011 293.68C655.318 293.6 655.585 293.48 655.811 293.32C656.051 293.16 656.238 292.96 656.371 292.72C656.518 292.467 656.591 292.167 656.591 291.82V284.68H658.191V295H656.591V293.32ZM663.878 295C663.318 295 662.892 294.847 662.598 294.54C662.318 294.22 662.178 293.807 662.178 293.3V286.08H660.478V284.68H661.438C661.785 284.68 662.018 284.613 662.138 284.48C662.272 284.333 662.338 284.087 662.338 283.74V281.82H663.778V284.68H666.038V286.08H663.778V293.6H665.878V295H663.878ZM682.237 288.68H675.177V295H673.497V281.04H675.177V287.2H682.237V281.04H683.917V295H682.237V288.68ZM691.377 295.24C690.684 295.24 690.051 295.113 689.477 294.86C688.904 294.607 688.411 294.247 687.997 293.78C687.597 293.3 687.284 292.733 687.057 292.08C686.831 291.413 686.717 290.667 686.717 289.84C686.717 289.027 686.831 288.287 687.057 287.62C687.284 286.953 687.597 286.387 687.997 285.92C688.411 285.44 688.904 285.073 689.477 284.82C690.051 284.567 690.684 284.44 691.377 284.44C692.071 284.44 692.697 284.567 693.257 284.82C693.831 285.073 694.324 285.44 694.737 285.92C695.151 286.387 695.471 286.953 695.697 287.62C695.924 288.287 696.037 289.027 696.037 289.84C696.037 290.667 695.924 291.413 695.697 292.08C695.471 292.733 695.151 293.3 694.737 293.78C694.324 294.247 693.831 294.607 693.257 294.86C692.697 295.113 692.071 295.24 691.377 295.24ZM691.377 293.82C692.244 293.82 692.951 293.553 693.497 293.02C694.044 292.487 694.317 291.673 694.317 290.58V289.1C694.317 288.007 694.044 287.193 693.497 286.66C692.951 286.127 692.244 285.86 691.377 285.86C690.511 285.86 689.804 286.127 689.257 286.66C688.711 287.193 688.437 288.007 688.437 289.1V290.58C688.437 291.673 688.711 292.487 689.257 293.02C689.804 293.553 690.511 293.82 691.377 293.82ZM701.769 295.24C700.809 295.24 700.002 295.06 699.349 294.7C698.709 294.327 698.155 293.833 697.689 293.22L698.829 292.3C699.229 292.807 699.675 293.2 700.169 293.48C700.662 293.747 701.235 293.88 701.889 293.88C702.569 293.88 703.095 293.733 703.469 293.44C703.855 293.147 704.049 292.733 704.049 292.2C704.049 291.8 703.915 291.46 703.649 291.18C703.395 290.887 702.929 290.687 702.249 290.58L701.429 290.46C700.949 290.393 700.509 290.293 700.109 290.16C699.709 290.013 699.355 289.827 699.049 289.6C698.755 289.36 698.522 289.067 698.349 288.72C698.189 288.373 698.109 287.96 698.109 287.48C698.109 286.973 698.202 286.533 698.389 286.16C698.575 285.773 698.829 285.453 699.149 285.2C699.482 284.947 699.875 284.76 700.329 284.64C700.782 284.507 701.269 284.44 701.789 284.44C702.629 284.44 703.329 284.587 703.889 284.88C704.462 285.173 704.962 285.58 705.389 286.1L704.329 287.06C704.102 286.74 703.769 286.453 703.329 286.2C702.889 285.933 702.335 285.8 701.669 285.8C701.002 285.8 700.495 285.947 700.149 286.24C699.815 286.52 699.649 286.907 699.649 287.4C699.649 287.907 699.815 288.273 700.149 288.5C700.495 288.727 700.989 288.893 701.629 289L702.429 289.12C703.575 289.293 704.389 289.627 704.869 290.12C705.349 290.6 705.589 291.233 705.589 292.02C705.589 293.02 705.249 293.807 704.569 294.38C703.889 294.953 702.955 295.24 701.769 295.24ZM710.558 295C709.998 295 709.571 294.847 709.278 294.54C708.998 294.22 708.858 293.807 708.858 293.3V286.08H707.158V284.68H708.118C708.465 284.68 708.698 284.613 708.818 284.48C708.951 284.333 709.018 284.087 709.018 283.74V281.82H710.458V284.68H712.718V286.08H710.458V293.6H712.558V295H710.558ZM716.09 282.26C715.743 282.26 715.49 282.18 715.33 282.02C715.183 281.847 715.11 281.627 715.11 281.36V281.1C715.11 280.833 715.183 280.62 715.33 280.46C715.49 280.287 715.743 280.2 716.09 280.2C716.437 280.2 716.683 280.287 716.83 280.46C716.99 280.62 717.07 280.833 717.07 281.1V281.36C717.07 281.627 716.99 281.847 716.83 282.02C716.683 282.18 716.437 282.26 716.09 282.26ZM715.29 284.68H716.89V295H715.29V284.68ZM720.29 295V284.68H721.89V286.36H721.97C722.223 285.773 722.577 285.307 723.03 284.96C723.497 284.613 724.117 284.44 724.89 284.44C725.957 284.44 726.797 284.787 727.41 285.48C728.037 286.16 728.35 287.127 728.35 288.38V295H726.75V288.66C726.75 286.807 725.97 285.88 724.41 285.88C724.09 285.88 723.777 285.92 723.47 286C723.177 286.08 722.91 286.2 722.67 286.36C722.43 286.52 722.237 286.727 722.09 286.98C721.957 287.22 721.89 287.507 721.89 287.84V295H720.29ZM740.357 296.14C740.357 297.207 739.937 297.987 739.097 298.48C738.27 298.987 737.024 299.24 735.357 299.24C733.744 299.24 732.584 299.02 731.877 298.58C731.17 298.14 730.817 297.513 730.817 296.7C730.817 296.14 730.964 295.7 731.257 295.38C731.55 295.073 731.95 294.847 732.457 294.7V294.48C731.844 294.187 731.537 293.707 731.537 293.04C731.537 292.52 731.704 292.127 732.037 291.86C732.37 291.58 732.797 291.373 733.317 291.24V291.16C732.704 290.867 732.224 290.447 731.877 289.9C731.544 289.353 731.377 288.72 731.377 288C731.377 287.48 731.47 287 731.657 286.56C731.844 286.12 732.104 285.747 732.437 285.44C732.784 285.12 733.19 284.873 733.657 284.7C734.137 284.527 734.67 284.44 735.257 284.44C735.99 284.44 736.644 284.573 737.217 284.84V284.66C737.217 284.26 737.31 283.933 737.497 283.68C737.684 283.413 737.99 283.28 738.417 283.28H739.957V284.68H737.997V285.34C738.37 285.66 738.657 286.047 738.857 286.5C739.07 286.94 739.177 287.44 739.177 288C739.177 288.52 739.084 289 738.897 289.44C738.71 289.88 738.444 290.26 738.097 290.58C737.764 290.887 737.357 291.127 736.877 291.3C736.397 291.473 735.864 291.56 735.277 291.56C734.944 291.56 734.61 291.527 734.277 291.46C733.93 291.553 733.617 291.693 733.337 291.88C733.057 292.053 732.917 292.3 732.917 292.62C732.917 292.927 733.064 293.133 733.357 293.24C733.65 293.347 734.03 293.4 734.497 293.4H736.697C737.977 293.4 738.904 293.647 739.477 294.14C740.064 294.62 740.357 295.287 740.357 296.14ZM738.857 296.26C738.857 295.847 738.697 295.513 738.377 295.26C738.07 295.02 737.517 294.9 736.717 294.9H733.277C732.637 295.193 732.317 295.66 732.317 296.3C732.317 296.753 732.484 297.14 732.817 297.46C733.164 297.78 733.744 297.94 734.557 297.94H736.037C736.93 297.94 737.624 297.8 738.117 297.52C738.61 297.24 738.857 296.82 738.857 296.26ZM735.277 290.28C735.957 290.28 736.497 290.12 736.897 289.8C737.297 289.467 737.497 288.96 737.497 288.28V287.72C737.497 287.04 737.297 286.54 736.897 286.22C736.497 285.887 735.957 285.72 735.277 285.72C734.597 285.72 734.057 285.887 733.657 286.22C733.257 286.54 733.057 287.04 733.057 287.72V288.28C733.057 288.96 733.257 289.467 733.657 289.8C734.057 290.12 734.597 290.28 735.277 290.28ZM755.85 295L754.45 290.88H748.81L747.41 295H745.71L750.59 281.04H752.73L757.61 295H755.85ZM751.67 282.6H751.57L749.21 289.4H754.03L751.67 282.6ZM759.763 295V284.68H761.363V286.36H761.443C761.696 285.773 762.049 285.307 762.503 284.96C762.969 284.613 763.589 284.44 764.363 284.44C765.429 284.44 766.269 284.787 766.883 285.48C767.509 286.16 767.823 287.127 767.823 288.38V295H766.223V288.66C766.223 286.807 765.443 285.88 763.883 285.88C763.563 285.88 763.249 285.92 762.943 286C762.649 286.08 762.383 286.2 762.143 286.36C761.903 286.52 761.709 286.727 761.563 286.98C761.429 287.22 761.363 287.507 761.363 287.84V295H759.763ZM776.016 295V281.04H784.536V282.52H777.696V287.2H784.136V288.68H777.696V293.52H784.536V295H776.016ZM789.796 295L786.176 284.68H787.776L789.576 289.8L790.696 293.32H790.796L791.916 289.8L793.756 284.68H795.296L791.656 295H789.796ZM801.084 295.24C800.377 295.24 799.737 295.113 799.164 294.86C798.604 294.607 798.117 294.247 797.704 293.78C797.304 293.3 796.991 292.733 796.764 292.08C796.551 291.413 796.444 290.667 796.444 289.84C796.444 289.027 796.551 288.287 796.764 287.62C796.991 286.953 797.304 286.387 797.704 285.92C798.117 285.44 798.604 285.073 799.164 284.82C799.737 284.567 800.377 284.44 801.084 284.44C801.777 284.44 802.397 284.567 802.944 284.82C803.491 285.073 803.957 285.427 804.344 285.88C804.731 286.32 805.024 286.847 805.224 287.46C805.437 288.073 805.544 288.747 805.544 289.48V290.24H798.124V290.72C798.124 291.16 798.191 291.573 798.324 291.96C798.471 292.333 798.671 292.66 798.924 292.94C799.191 293.22 799.511 293.44 799.884 293.6C800.271 293.76 800.704 293.84 801.184 293.84C801.837 293.84 802.404 293.687 802.884 293.38C803.377 293.073 803.757 292.633 804.024 292.06L805.164 292.88C804.831 293.587 804.311 294.16 803.604 294.6C802.897 295.027 802.057 295.24 801.084 295.24ZM801.084 285.78C800.644 285.78 800.244 285.86 799.884 286.02C799.524 286.167 799.211 286.38 798.944 286.66C798.691 286.94 798.491 287.273 798.344 287.66C798.197 288.033 798.124 288.447 798.124 288.9V289.04H803.824V288.82C803.824 287.9 803.571 287.167 803.064 286.62C802.571 286.06 801.911 285.78 801.084 285.78ZM808.18 295V284.68H809.78V286.36H809.86C810.114 285.773 810.467 285.307 810.92 284.96C811.387 284.613 812.007 284.44 812.78 284.44C813.847 284.44 814.687 284.787 815.3 285.48C815.927 286.16 816.24 287.127 816.24 288.38V295H814.64V288.66C814.64 286.807 813.86 285.88 812.3 285.88C811.98 285.88 811.667 285.92 811.36 286C811.067 286.08 810.8 286.2 810.56 286.36C810.32 286.52 810.127 286.727 809.98 286.98C809.847 287.22 809.78 287.507 809.78 287.84V295H808.18ZM821.828 295C821.268 295 820.841 294.847 820.548 294.54C820.268 294.22 820.128 293.807 820.128 293.3V286.08H818.428V284.68H819.388C819.734 284.68 819.968 284.613 820.088 284.48C820.221 284.333 820.288 284.087 820.288 283.74V281.82H821.728V284.68H823.988V286.08H821.728V293.6H823.828V295H821.828ZM833.386 295L829.986 281.04H831.766L833.266 287.76L834.426 292.98H834.466L835.766 287.76L837.526 281.04H839.446L841.146 287.76L842.446 292.96H842.506L843.706 287.76L845.286 281.04H847.006L843.426 295H841.566L839.746 288.04L838.466 282.92H838.426L837.106 288.04L835.246 295H833.386ZM849.898 282.26C849.552 282.26 849.298 282.18 849.138 282.02C848.992 281.847 848.918 281.627 848.918 281.36V281.1C848.918 280.833 848.992 280.62 849.138 280.46C849.298 280.287 849.552 280.2 849.898 280.2C850.245 280.2 850.492 280.287 850.638 280.46C850.798 280.62 850.878 280.833 850.878 281.1V281.36C850.878 281.627 850.798 281.847 850.638 282.02C850.492 282.18 850.245 282.26 849.898 282.26ZM849.098 284.68H850.698V295H849.098V284.68ZM856.378 295C855.818 295 855.392 294.847 855.098 294.54C854.818 294.22 854.678 293.807 854.678 293.3V286.08H852.978V284.68H853.938C854.285 284.68 854.518 284.613 854.638 284.48C854.772 284.333 854.838 284.087 854.838 283.74V281.82H856.278V284.68H858.538V286.08H856.278V293.6H858.378V295H856.378ZM861.11 280.2H862.71V286.36H862.79C863.043 285.773 863.397 285.307 863.85 284.96C864.317 284.613 864.937 284.44 865.71 284.44C866.777 284.44 867.617 284.787 868.23 285.48C868.857 286.16 869.17 287.127 869.17 288.38V295H867.57V288.66C867.57 286.807 866.79 285.88 865.23 285.88C864.91 285.88 864.597 285.92 864.29 286C863.997 286.08 863.73 286.2 863.49 286.36C863.25 286.52 863.057 286.727 862.91 286.98C862.777 287.22 862.71 287.507 862.71 287.84V295H861.11V280.2ZM877.364 295V281.04H879.044V293.52H884.984V295H877.364ZM894.704 295C894.104 295 893.671 294.84 893.404 294.52C893.151 294.2 892.991 293.8 892.924 293.32H892.824C892.597 293.96 892.224 294.44 891.704 294.76C891.184 295.08 890.564 295.24 889.844 295.24C888.751 295.24 887.897 294.96 887.284 294.4C886.684 293.84 886.384 293.08 886.384 292.12C886.384 291.147 886.737 290.4 887.444 289.88C888.164 289.36 889.277 289.1 890.784 289.1H892.824V288.08C892.824 287.347 892.624 286.787 892.224 286.4C891.824 286.013 891.211 285.82 890.384 285.82C889.757 285.82 889.231 285.96 888.804 286.24C888.391 286.52 888.044 286.893 887.764 287.36L886.804 286.46C887.084 285.9 887.531 285.427 888.144 285.04C888.757 284.64 889.531 284.44 890.464 284.44C891.717 284.44 892.691 284.747 893.384 285.36C894.077 285.973 894.424 286.827 894.424 287.92V293.6H895.604V295H894.704ZM890.104 293.88C890.504 293.88 890.871 293.833 891.204 293.74C891.537 293.647 891.824 293.513 892.064 293.34C892.304 293.167 892.491 292.967 892.624 292.74C892.757 292.513 892.824 292.267 892.824 292V290.3H890.704C889.784 290.3 889.111 290.433 888.684 290.7C888.271 290.967 888.064 291.353 888.064 291.86V292.28C888.064 292.787 888.244 293.18 888.604 293.46C888.977 293.74 889.477 293.88 890.104 293.88ZM900.988 295.24C900.028 295.24 899.221 295.06 898.568 294.7C897.928 294.327 897.374 293.833 896.908 293.22L898.048 292.3C898.448 292.807 898.894 293.2 899.388 293.48C899.881 293.747 900.454 293.88 901.108 293.88C901.788 293.88 902.314 293.733 902.688 293.44C903.074 293.147 903.268 292.733 903.268 292.2C903.268 291.8 903.134 291.46 902.868 291.18C902.614 290.887 902.148 290.687 901.467 290.58L900.648 290.46C900.168 290.393 899.728 290.293 899.328 290.16C898.928 290.013 898.574 289.827 898.268 289.6C897.974 289.36 897.741 289.067 897.568 288.72C897.408 288.373 897.328 287.96 897.328 287.48C897.328 286.973 897.421 286.533 897.608 286.16C897.794 285.773 898.048 285.453 898.368 285.2C898.701 284.947 899.094 284.76 899.548 284.64C900.001 284.507 900.488 284.44 901.008 284.44C901.848 284.44 902.548 284.587 903.108 284.88C903.681 285.173 904.181 285.58 904.608 286.1L903.548 287.06C903.321 286.74 902.988 286.453 902.548 286.2C902.108 285.933 901.554 285.8 900.888 285.8C900.221 285.8 899.714 285.947 899.368 286.24C899.034 286.52 898.868 286.907 898.868 287.4C898.868 287.907 899.034 288.273 899.368 288.5C899.714 288.727 900.208 288.893 900.848 289L901.648 289.12C902.794 289.293 903.608 289.627 904.088 290.12C904.568 290.6 904.808 291.233 904.808 292.02C904.808 293.02 904.468 293.807 903.788 294.38C903.108 294.953 902.174 295.24 900.988 295.24ZM909.777 295C909.217 295 908.79 294.847 908.497 294.54C908.217 294.22 908.077 293.807 908.077 293.3V286.08H906.377V284.68H907.337C907.684 284.68 907.917 284.613 908.037 284.48C908.17 284.333 908.237 284.087 908.237 283.74V281.82H909.677V284.68H911.937V286.08H909.677V293.6H911.777V295H909.777ZM914.669 295V281.04H923.189V282.52H916.349V287.2H922.789V288.68H916.349V293.52H923.189V295H914.669ZM926.169 295V284.68H927.769V286.36H927.849C928.102 285.773 928.455 285.307 928.909 284.96C929.375 284.613 929.995 284.44 930.769 284.44C931.835 284.44 932.675 284.787 933.289 285.48C933.915 286.16 934.229 287.127 934.229 288.38V295H932.629V288.66C932.629 286.807 931.849 285.88 930.289 285.88C929.969 285.88 929.655 285.92 929.349 286C929.055 286.08 928.789 286.2 928.549 286.36C928.309 286.52 928.115 286.727 927.969 286.98C927.835 287.22 927.769 287.507 927.769 287.84V295H926.169ZM939.816 295C939.256 295 938.829 294.847 938.536 294.54C938.256 294.22 938.116 293.807 938.116 293.3V286.08H936.416V284.68H937.376C937.723 284.68 937.956 284.613 938.076 284.48C938.209 284.333 938.276 284.087 938.276 283.74V281.82H939.716V284.68H941.976V286.08H939.716V293.6H941.816V295H939.816ZM944.548 295V284.68H946.148V286.58H946.248C946.434 286.087 946.768 285.647 947.248 285.26C947.728 284.873 948.388 284.68 949.228 284.68H949.848V286.28H948.908C948.041 286.28 947.361 286.447 946.868 286.78C946.388 287.1 946.148 287.507 946.148 288V295H944.548ZM958.447 284.68H960.027L955.407 297.4C955.287 297.707 955.167 297.96 955.047 298.16C954.927 298.373 954.78 298.54 954.607 298.66C954.433 298.78 954.213 298.867 953.947 298.92C953.693 298.973 953.38 299 953.007 299H952.187V297.6H953.807L954.587 295.4L950.727 284.68H952.327L954.807 291.7L955.287 293.38H955.387L955.947 291.7L958.447 284.68Z" fill="white"/>
<rect x="628" y="342" width="212" height="55" rx="8" fill="white"/>
<path d="M689.619 375V364.818H691.155V373.678H695.768V375H689.619ZM697.521 375V364.818H703.904V366.141H699.057V369.243H703.571V370.56H699.057V373.678H703.964V375H697.521ZM706.817 375H705.186L708.85 364.818H710.625L714.289 375H712.658L709.78 366.668H709.7L706.817 375ZM707.09 371.013H712.38V372.305H707.09V371.013ZM715.759 375V364.818H719.388C720.177 364.818 720.832 364.954 721.352 365.226C721.876 365.498 722.267 365.874 722.526 366.354C722.784 366.832 722.913 367.384 722.913 368.01C722.913 368.633 722.782 369.182 722.521 369.656C722.262 370.126 721.871 370.492 721.347 370.754C720.827 371.016 720.172 371.147 719.384 371.147H716.634V369.825H719.244C719.741 369.825 720.146 369.753 720.457 369.611C720.772 369.468 721.003 369.261 721.148 368.989C721.294 368.718 721.367 368.391 721.367 368.01C721.367 367.625 721.293 367.292 721.143 367.011C720.998 366.729 720.767 366.513 720.452 366.364C720.141 366.212 719.732 366.136 719.224 366.136H717.295V375H715.759ZM720.786 370.406L723.301 375H721.551L719.085 370.406H720.786ZM733.001 364.818V375H731.589L726.413 367.533H726.319V375H724.783V364.818H726.205L731.385 372.295H731.479V364.818H733.001ZM738.947 364.818H740.811L744.053 372.733H744.172L747.413 364.818H749.278V375H747.816V367.632H747.722L744.719 374.985H743.506L740.503 367.627H740.408V375H738.947V364.818ZM760.356 369.909C760.356 370.996 760.157 371.931 759.759 372.713C759.361 373.492 758.816 374.092 758.123 374.513C757.434 374.93 756.65 375.139 755.772 375.139C754.89 375.139 754.103 374.93 753.41 374.513C752.721 374.092 752.177 373.49 751.78 372.708C751.382 371.926 751.183 370.993 751.183 369.909C751.183 368.822 751.382 367.889 751.78 367.11C752.177 366.328 752.721 365.728 753.41 365.31C754.103 364.889 754.89 364.679 755.772 364.679C756.65 364.679 757.434 364.889 758.123 365.31C758.816 365.728 759.361 366.328 759.759 367.11C760.157 367.889 760.356 368.822 760.356 369.909ZM758.834 369.909C758.834 369.08 758.7 368.383 758.432 367.816C758.166 367.246 757.802 366.815 757.338 366.523C756.877 366.228 756.355 366.081 755.772 366.081C755.185 366.081 754.662 366.228 754.201 366.523C753.74 366.815 753.376 367.246 753.107 367.816C752.842 368.383 752.709 369.08 752.709 369.909C752.709 370.738 752.842 371.437 753.107 372.007C753.376 372.574 753.74 373.005 754.201 373.3C754.662 373.591 755.185 373.737 755.772 373.737C756.355 373.737 756.877 373.591 757.338 373.3C757.802 373.005 758.166 372.574 758.432 372.007C758.7 371.437 758.834 370.738 758.834 369.909ZM762.271 375V364.818H765.9C766.689 364.818 767.344 364.954 767.864 365.226C768.388 365.498 768.779 365.874 769.037 366.354C769.296 366.832 769.425 367.384 769.425 368.01C769.425 368.633 769.294 369.182 769.032 369.656C768.774 370.126 768.383 370.492 767.859 370.754C767.339 371.016 766.684 371.147 765.895 371.147H763.146V369.825H765.756C766.253 369.825 766.658 369.753 766.969 369.611C767.284 369.468 767.514 369.261 767.66 368.989C767.806 368.718 767.879 368.391 767.879 368.01C767.879 367.625 767.804 367.292 767.655 367.011C767.509 366.729 767.279 366.513 766.964 366.364C766.653 366.212 766.243 366.136 765.736 366.136H763.807V375H762.271ZM767.297 370.406L769.813 375H768.063L765.597 370.406H767.297ZM771.294 375V364.818H777.678V366.141H772.831V369.243H777.345V370.56H772.831V373.678H777.738V375H771.294Z" fill="#121212"/>
<path d="M123.384 279.989C123.384 333.105 65.8841 366.302 19.8841 339.744L-359.616 120.64C-405.616 94.0818 -405.616 27.6865 -359.616 1.1284L19.8841 -217.976C65.8841 -244.534 123.384 -211.337 123.384 -158.22L123.384 279.989Z" fill="#6640FF"/>
<path d="M266.384 156.989C266.384 210.105 208.884 243.302 162.884 216.744L-216.616 -2.36012C-262.616 -28.9182 -262.616 -95.3135 -216.616 -121.872L162.884 -340.976C208.884 -367.534 266.384 -334.337 266.384 -281.22L266.384 156.989Z" fill="#FF77D9"/>
</g>
<defs>
<clipPath id="clip0_60_9831">
<rect width="1440" height="519" fill="white"/>
</clipPath>
</defs>
</svg>
