<svg width="128" height="128" viewBox="0 0 128 128" fill="none" xmlns="http://www.w3.org/2000/svg">
<g filter="url(#filter0_d_60_10016)">
<rect x="20" y="12" width="80" height="80" rx="40" fill="white"/>
<path d="M61.982 42H51.3154C50.882 42 50.4654 42.0167 50.0654 42.0667C45.582 42.45 43.332 45.1 43.332 49.9833V56.65C43.332 63.3167 45.9987 64.6333 51.3154 64.6333H51.982C52.3487 64.6333 52.832 64.8833 53.0487 65.1667L55.0487 67.8333C55.932 69.0167 57.3654 69.0167 58.2487 67.8333L60.2487 65.1667C60.4987 64.8333 60.8987 64.6333 61.3154 64.6333H61.982C66.8654 64.6333 69.5154 62.4 69.8987 57.9C69.9487 57.5 69.9654 57.0833 69.9654 56.65V49.9833C69.9654 44.6667 67.2987 42 61.982 42ZM50.832 55.3333C49.8987 55.3333 49.1654 54.5833 49.1654 53.6667C49.1654 52.75 49.9154 52 50.832 52C51.7487 52 52.4987 52.75 52.4987 53.6667C52.4987 54.5833 51.7487 55.3333 50.832 55.3333ZM56.6487 55.3333C55.7154 55.3333 54.982 54.5833 54.982 53.6667C54.982 52.75 55.732 52 56.6487 52C57.5654 52 58.3154 52.75 58.3154 53.6667C58.3154 54.5833 57.582 55.3333 56.6487 55.3333ZM62.482 55.3333C61.5487 55.3333 60.8154 54.5833 60.8154 53.6667C60.8154 52.75 61.5654 52 62.482 52C63.3987 52 64.1487 52.75 64.1487 53.6667C64.1487 54.5833 63.3987 55.3333 62.482 55.3333Z" fill="#292D32"/>
<path d="M76.6324 43.3166V49.9833C76.6324 53.3166 75.5991 55.5833 73.5324 56.8333C73.0324 57.1333 72.4491 56.7333 72.4491 56.15L72.4658 49.9833C72.4658 43.3166 68.6491 39.5 61.9824 39.5L51.8324 39.5166C51.2491 39.5166 50.8491 38.9333 51.1491 38.4333C52.3991 36.3666 54.6658 35.3333 57.9824 35.3333H68.6491C73.9658 35.3333 76.6324 38 76.6324 43.3166Z" fill="#292D32"/>
</g>
<defs>
<filter id="filter0_d_60_10016" x="0" y="0" width="128" height="128" filterUnits="userSpaceOnUse" color-interpolation-filters="sRGB">
<feFlood flood-opacity="0" result="BackgroundImageFix"/>
<feColorMatrix in="SourceAlpha" type="matrix" values="0 0 0 0 0 0 0 0 0 0 0 0 0 0 0 0 0 0 127 0" result="hardAlpha"/>
<feOffset dx="4" dy="12"/>
<feGaussianBlur stdDeviation="12"/>
<feColorMatrix type="matrix" values="0 0 0 0 0.109804 0 0 0 0 0.172549 0 0 0 0 0.25098 0 0 0 0.08 0"/>
<feBlend mode="normal" in2="BackgroundImageFix" result="effect1_dropShadow_60_10016"/>
<feBlend mode="normal" in="SourceGraphic" in2="effect1_dropShadow_60_10016" result="shape"/>
</filter>
</defs>
</svg>
